<svg width="32" height="32" viewBox="0 0 32 32" fill="none" xmlns="http://www.w3.org/2000/svg">
<rect width="32" height="32" fill="white"/>
<path d="M24.8278 24.428C25.3962 24.428 25.8509 23.9733 25.8509 23.4049C25.8509 22.8365 25.3962 22.3818 24.8278 22.3818C24.2594 22.3818 23.8047 22.8365 23.8047 23.4049C23.8047 23.9733 24.2594 24.428 24.8278 24.428Z" fill="#597DFC"/>
<path d="M21.5889 22.438C21.1342 22.438 20.7363 22.8359 20.7363 23.2906C20.7363 23.7453 21.1342 24.1431 21.5889 24.1431C22.0436 24.1431 22.4415 23.7453 22.4415 23.2906C22.3846 22.8359 22.0436 22.438 21.5889 22.438Z" fill="#597DFC"/>
<path d="M27.0444 24.769C26.817 24.769 26.6465 24.9396 26.6465 25.1669C26.6465 25.3943 26.817 25.5648 27.0444 25.5648C27.2717 25.5648 27.4422 25.3943 27.4422 25.1669C27.4422 24.9396 27.2717 24.769 27.0444 24.769Z" fill="#597DFC"/>
<path d="M23.2364 26.0191C23.5205 26.0191 23.8047 25.7917 23.8047 25.4507C23.8047 25.1665 23.5774 24.8823 23.2364 24.8823C22.9522 24.8823 22.668 25.1097 22.668 25.4507C22.7248 25.7917 22.9522 26.0191 23.2364 26.0191Z" fill="#597DFC"/>
<path d="M13.5145 11.0137C13.6282 11.0137 13.7418 11.0705 13.7987 11.0705C14.4239 11.0705 14.8786 10.559 14.8786 9.99057C14.8786 9.36535 14.3671 8.91064 13.7987 8.91064C13.1735 8.91064 12.7188 9.42219 12.7188 9.99057C12.7188 10.3884 12.9461 10.7863 13.344 10.9568C13.4008 10.9568 13.4576 11.0137 13.5145 11.0137Z" fill="#597DFC"/>
<path d="M20.9617 18.2325C21.7575 16.9821 22.2122 15.4475 22.2122 13.856C22.2122 9.87732 19.3703 6.52387 15.5621 5.72813C14.9937 5.61445 14.4254 5.55762 13.8001 5.55762C9.25308 5.55762 5.55859 9.2521 5.55859 13.856C5.55859 17.721 8.17315 21.0176 11.754 21.927C11.1856 21.6428 7.2069 18.9146 7.26374 13.6286C7.26374 10.2183 10.1625 7.43328 13.5728 7.3196C17.2673 7.20592 20.3365 10.1615 20.3365 13.856C20.3365 16.5842 18.6882 18.9146 16.301 19.8808C15.7895 20.0513 14.0843 20.4492 12.6065 18.4599C11.6403 17.0389 11.754 15.5043 11.8108 15.0496C11.8676 14.197 12.5497 13.5718 13.3454 13.5718C13.4023 13.5718 13.4591 13.5718 13.5159 13.5718C14.4822 13.6286 15.1074 14.3107 15.0506 15.2201C14.9937 15.959 14.8232 16.7547 14.4822 17.4368L14.4254 17.4936C14.3685 17.6073 14.3117 17.721 14.2548 17.8347C14.198 17.9483 14.198 18.062 14.198 18.1757C14.2548 18.4599 14.539 18.6304 14.8232 18.5736C14.9937 18.5736 15.1074 18.4599 15.1642 18.3462C15.9031 17.2663 16.4147 16.1864 16.4147 14.8791C16.4147 14.0833 16.1305 13.3444 15.619 12.8329C15.0506 12.2645 14.3117 11.9803 13.4591 11.9803C13.4023 11.9803 13.3454 11.9803 13.2886 11.9803C12.8339 11.9803 12.436 12.094 12.095 12.2645C12.095 12.2645 10.2762 12.8329 10.1056 14.9359C9.93513 16.1295 10.0488 18.062 11.8108 19.9945C12.0381 20.2219 12.2087 20.4492 12.4929 20.6766C12.777 20.9039 13.0612 21.0744 13.4023 21.3018C13.5728 21.4155 13.7433 21.4723 13.857 21.5291C14.1412 21.6428 14.4822 21.7565 14.8232 21.8133C15.5621 21.927 16.301 21.8133 16.9831 21.5291C17.5515 21.3018 18.063 21.0176 18.5177 20.6766L19.8818 21.927C20.2228 21.586 20.7344 21.4155 21.2459 21.4155C22.0417 21.4155 22.7806 21.927 23.0648 22.6091C23.2353 22.1544 23.6331 21.8133 24.0878 21.6428L20.9617 18.2325Z" fill="#597DFC"/>
</svg>
