<svg width="24" height="24" viewBox="0 0 24 24" fill="none" xmlns="http://www.w3.org/2000/svg">
<rect width="24" height="24" fill="#597DFC"/>
<path d="M18.1871 17.9033C18.5747 17.9033 18.8888 17.5892 18.8888 17.2017C18.8888 16.8141 18.5747 16.5 18.1871 16.5C17.7995 16.5 17.4854 16.8141 17.4854 17.2017C17.4854 17.5892 17.7995 17.9033 18.1871 17.9033Z" fill="white"/>
<path d="M15.9364 16.5625C15.8617 16.5625 15.7876 16.5772 15.7186 16.6058C15.6495 16.6344 15.5868 16.6764 15.5339 16.7292C15.481 16.7821 15.4391 16.8448 15.4105 16.9139C15.3819 16.9829 15.3672 17.0569 15.3672 17.1317C15.3672 17.2827 15.4272 17.4275 15.5339 17.5342C15.6407 17.641 15.7855 17.701 15.9365 17.701C16.0875 17.701 16.2324 17.641 16.3391 17.5342C16.4459 17.4275 16.5059 17.2827 16.5059 17.1317C16.5064 17.0568 16.4921 16.9825 16.4636 16.9132C16.4352 16.8438 16.3933 16.7809 16.3403 16.7279C16.2873 16.675 16.2243 16.6331 16.155 16.6047C16.0856 16.5763 16.0113 16.5619 15.9364 16.5625Z" fill="white"/>
<path d="M19.6896 18.1582C19.6194 18.1584 19.5522 18.1864 19.5026 18.236C19.453 18.2856 19.425 18.3528 19.4248 18.423C19.4248 18.4932 19.4527 18.5605 19.5024 18.6102C19.552 18.6598 19.6194 18.6877 19.6896 18.6877C19.7598 18.6877 19.8272 18.6598 19.8768 18.6102C19.9265 18.5605 19.9544 18.4932 19.9544 18.423C19.9542 18.3528 19.9262 18.2856 19.8766 18.236C19.827 18.1864 19.7598 18.1584 19.6896 18.1582Z" fill="white"/>
<path d="M17.0875 19.0011C17.2922 19.0011 17.4582 18.8351 17.4582 18.6304C17.4582 18.4257 17.2922 18.2598 17.0875 18.2598C16.8828 18.2598 16.7168 18.4257 16.7168 18.6304C16.7168 18.8351 16.8828 19.0011 17.0875 19.0011Z" fill="white"/>
<path d="M10.4341 8.73137C10.5032 8.74962 10.5745 8.75823 10.646 8.75695H10.6593C10.846 8.75876 11.0269 8.69199 11.1676 8.56931C11.3084 8.44663 11.3992 8.27657 11.4229 8.09138C11.4466 7.90618 11.4014 7.71875 11.2961 7.5646C11.1907 7.41046 11.0325 7.30034 10.8513 7.25512C10.6701 7.2099 10.4787 7.23273 10.3132 7.31928C10.1478 7.40583 10.0199 7.55009 9.95373 7.72468C9.88759 7.89927 9.88783 8.09207 9.9544 8.2665C10.021 8.44093 10.1493 8.58486 10.3149 8.671L10.4341 8.73137Z" fill="white"/>
<path d="M15.5194 13.6716C16.0048 12.8955 16.2945 12.0132 16.3638 11.1004C16.433 10.1877 16.2797 9.27175 15.9169 8.43131C15.5542 7.59087 14.9928 6.85102 14.2811 6.27527C13.5694 5.69953 12.7286 5.3051 11.8308 5.12585C11.4411 5.04369 11.0441 5.00152 10.6458 5C9.26657 5.01186 7.9385 5.52383 6.90828 6.44082C5.87805 7.35782 5.21568 8.61751 5.0442 9.98594C4.87271 11.3544 5.20377 12.7385 5.97587 13.8813C6.74798 15.0241 7.90866 15.8479 9.24234 16.1996C8.83864 16.0078 6.13759 14.1533 6.17059 10.527C6.19055 8.19058 8.15659 6.29741 10.4941 6.21786C11.5417 6.18129 12.5689 6.51341 13.3967 7.15635C14.2245 7.79929 14.8005 8.71228 15.0242 9.73622C15.2479 10.7602 15.1052 11.8301 14.6209 12.7597C14.1367 13.6892 13.3416 14.4194 12.3742 14.8229C12.0299 14.9355 10.8392 15.2066 9.85198 13.8632C9.41217 13.1704 9.22075 12.3489 9.3091 11.5331C9.32354 11.2588 9.44165 11.0003 9.63952 10.8098C9.83739 10.6193 10.1002 10.5111 10.3749 10.5071C10.4103 10.506 10.4458 10.5082 10.4808 10.5137C10.6236 10.5144 10.7648 10.5441 10.8958 10.601C11.0268 10.6579 11.1448 10.7409 11.2427 10.8449C11.3406 10.9488 11.4163 11.0716 11.4653 11.2058C11.5142 11.3399 11.5354 11.4826 11.5274 11.6252C11.4979 12.1504 11.3677 12.6651 11.1437 13.1411L11.1181 13.194C11.0851 13.2669 11.0452 13.3529 11.0122 13.4191C10.9789 13.4963 10.9719 13.5823 10.9922 13.6639C11.0151 13.7511 11.0698 13.8267 11.1455 13.8757C11.2213 13.9246 11.3126 13.9436 11.4015 13.9287H11.4082C11.4561 13.9201 11.5018 13.9021 11.5428 13.8758C11.5837 13.8494 11.619 13.8152 11.6466 13.7752C12.1702 13.085 12.4705 12.2513 12.5072 11.3858C12.5179 10.8616 12.3203 10.3545 11.9577 9.9758C11.7592 9.78464 11.5248 9.63474 11.268 9.53476C11.0112 9.43478 10.7371 9.38671 10.4616 9.39335H10.3357C10.054 9.40668 9.77649 9.46721 9.51479 9.57241C9.13509 9.7157 8.80557 9.96688 8.5668 10.295C8.32803 10.6232 8.19043 11.0139 8.17092 11.4193C8.09471 12.0477 8.15975 12.6851 8.3613 13.2852C8.56286 13.8852 8.89585 14.4327 9.33597 14.8877C9.47712 15.0508 9.63213 15.2014 9.79927 15.3379C9.99385 15.4961 10.2046 15.6333 10.4281 15.7471C10.5336 15.8115 10.6444 15.8668 10.7591 15.9126C10.7642 15.9133 10.7689 15.9157 10.7724 15.9193V15.9126C10.9829 15.9984 11.203 16.0586 11.4279 16.0917H11.4345C11.9356 16.161 12.446 16.0923 12.9109 15.8932C13.2822 15.7304 13.635 15.5284 13.9634 15.2908L14.8844 16.1513C15.0454 16.003 15.2394 15.8953 15.4504 15.837C15.6614 15.7788 15.8832 15.7717 16.0975 15.8164C16.3117 15.861 16.5123 15.9562 16.6824 16.0939C16.8525 16.2316 16.9873 16.4079 17.0756 16.6082C17.1334 16.4525 17.2271 16.3127 17.349 16.2C17.4709 16.0873 17.6176 16.0049 17.7773 15.9595L15.5194 13.6716Z" fill="white"/>
</svg>
