<svg width="42" height="38" viewBox="0 0 42 38" fill="none" xmlns="http://www.w3.org/2000/svg">
<path d="M37.0843 35.0181C38.1491 35.0181 39.0124 34.1654 39.0124 33.1135C39.0124 32.0617 38.1491 31.209 37.0843 31.209C36.0195 31.209 35.1562 32.0617 35.1562 33.1135C35.1562 34.1654 36.0195 35.0181 37.0843 35.0181Z" fill="#597DFC"/>
<path d="M30.8999 31.3868C30.6945 31.3868 30.4911 31.4267 30.3014 31.5044C30.1116 31.582 29.9392 31.6958 29.794 31.8393C29.6488 31.9827 29.5336 32.153 29.455 32.3405C29.3764 32.5279 29.3359 32.7288 29.3359 32.9317C29.3359 33.3415 29.5007 33.7345 29.7941 34.0243C30.0875 34.3141 30.4854 34.4769 30.9002 34.4769C31.3151 34.4769 31.713 34.3141 32.0064 34.0243C32.2997 33.7345 32.4645 33.3415 32.4645 32.9317C32.466 32.7283 32.4266 32.5267 32.3485 32.3385C32.2704 32.1504 32.1551 31.9795 32.0095 31.8357C31.8639 31.692 31.6909 31.5782 31.5004 31.5012C31.3099 31.4241 31.1057 31.3852 30.8999 31.3868Z" fill="#597DFC"/>
<path d="M41.2119 35.7188C41.0191 35.7193 40.8344 35.7952 40.6981 35.9298C40.5618 36.0645 40.4849 36.247 40.4844 36.4374C40.4844 36.628 40.561 36.8108 40.6974 36.9455C40.8339 37.0803 41.0189 37.156 41.2119 37.156C41.4048 37.156 41.5899 37.0803 41.7263 36.9455C41.8627 36.8108 41.9394 36.628 41.9394 36.4374C41.9388 36.247 41.862 36.0645 41.7257 35.9298C41.5894 35.7952 41.4047 35.7193 41.2119 35.7188Z" fill="#597DFC"/>
<path d="M34.0654 38.0005C34.6279 38.0005 35.0839 37.55 35.0839 36.9944C35.0839 36.4387 34.6279 35.9883 34.0654 35.9883C33.5029 35.9883 33.0469 36.4387 33.0469 36.9944C33.0469 37.55 33.5029 38.0005 34.0654 38.0005Z" fill="#597DFC"/>
<path d="M15.7839 10.1351C15.9737 10.1846 16.1696 10.208 16.3659 10.2045H16.4024C16.9154 10.2094 17.4124 10.0282 17.7992 9.69521C18.1859 9.36221 18.4354 8.9006 18.5005 8.39792C18.5656 7.89524 18.4416 7.38646 18.1521 6.96806C17.8627 6.54967 17.4278 6.25075 16.9301 6.12802C16.4323 6.00528 15.9063 6.06724 15.4517 6.30217C14.9971 6.5371 14.6457 6.92866 14.4639 7.40257C14.2822 7.87648 14.2829 8.39979 14.4658 8.87326C14.6487 9.34672 15.0012 9.73741 15.4563 9.97122L15.7839 10.1351Z" fill="#597DFC"/>
<path d="M29.7539 23.5378C31.0876 21.4312 31.8837 19.0362 32.074 16.5587C32.2642 14.0812 31.8429 11.5951 30.8462 9.31381C29.8496 7.03255 28.3073 5.02432 26.3518 3.46154C24.3963 1.89877 22.0861 0.828156 19.6195 0.341614C18.5488 0.118581 17.4579 0.00411416 16.3636 0C12.5741 0.0321845 8.92521 1.42185 6.09462 3.91091C3.26403 6.39996 1.44416 9.81923 0.972997 13.5336C0.501838 17.248 1.41142 21.0051 3.53281 24.1071C5.6542 27.2091 8.84321 29.4451 12.5075 30.3999C11.3984 29.8791 3.97713 24.8452 4.06781 15.0024C4.12263 8.66038 9.52442 3.52163 15.9468 3.3057C18.8251 3.20644 21.6473 4.10795 23.9218 5.85312C26.1962 7.59828 27.7787 10.0765 28.3934 12.8558C29.008 15.6351 28.6159 18.5394 27.2854 21.0625C25.9549 23.5856 23.7704 25.5676 21.1124 26.663C20.1663 26.9685 16.895 27.7045 14.1825 24.0578C12.9742 22.1775 12.4482 19.9475 12.691 17.7332C12.7307 16.9888 13.0552 16.287 13.5988 15.7699C14.1425 15.2529 14.8647 14.9592 15.6193 14.9482C15.7166 14.9453 15.8141 14.9513 15.9103 14.9663C16.3027 14.968 16.6906 15.0486 17.0505 15.2031C17.4103 15.3576 17.7346 15.5828 18.0036 15.865C18.2726 16.1472 18.4806 16.4805 18.6151 16.8447C18.7496 17.2088 18.8077 17.5961 18.7858 17.9832C18.7049 19.4088 18.3469 20.8057 17.7315 22.0977L17.6612 22.2415C17.5705 22.4394 17.4609 22.6727 17.3702 22.8525C17.2787 23.0621 17.2595 23.2955 17.3154 23.517C17.3783 23.7538 17.5285 23.9588 17.7366 24.0917C17.9447 24.2247 18.1956 24.276 18.44 24.2356H18.4583C18.5899 24.2123 18.7156 24.1635 18.828 24.092C18.9405 24.0205 19.0374 23.9277 19.1134 23.819C20.552 21.9455 21.377 19.6826 21.478 17.3333C21.5073 15.9104 20.9644 14.5341 19.9681 13.5061C19.4228 12.9872 18.7787 12.5803 18.0731 12.309C17.3676 12.0376 16.6145 11.9071 15.8576 11.9251H15.5117C14.7376 11.9613 13.9752 12.1256 13.2561 12.4112C12.2129 12.8001 11.3075 13.4819 10.6515 14.3726C9.99545 15.2633 9.61738 16.324 9.56379 17.4242C9.35438 19.1299 9.53308 20.8602 10.0869 22.4889C10.6407 24.1176 11.5556 25.6037 12.7648 26.8386C13.1526 27.2815 13.5785 27.6904 14.0377 28.0607C14.5724 28.4902 15.1515 28.8625 15.7655 29.1716C16.0554 29.3462 16.3597 29.4965 16.675 29.6208C16.6889 29.6227 16.7018 29.629 16.7116 29.6389V29.6208C17.2899 29.8537 17.8946 30.0169 18.5124 30.1069H18.5307C19.9073 30.2949 21.3097 30.1086 22.5871 29.5681C23.6071 29.1261 24.5765 28.5779 25.4789 27.9329L28.0093 30.2686C28.4516 29.8661 28.9847 29.5737 29.5644 29.4156C30.1441 29.2574 30.7536 29.2382 31.3423 29.3595C31.931 29.4807 32.4819 29.739 32.9493 30.1128C33.4167 30.4866 33.7871 30.9651 34.0297 31.5087C34.1886 31.0863 34.4459 30.7068 34.7809 30.4009C35.1158 30.095 35.519 29.8713 35.9577 29.7479L29.7539 23.5378Z" fill="#597DFC"/>
</svg>
