<svg width="33" height="33" viewBox="0 0 33 33" fill="none" xmlns="http://www.w3.org/2000/svg">
<path d="M9.39818 15.0911C8.95777 14.6507 8.23921 14.6507 7.7988 15.0911C7.35646 15.5328 7.35646 16.2501 7.7988 16.6924L13.0142 21.9091C13.235 22.1299 13.5112 22.2407 13.8145 22.2407H13.8699C14.1732 22.2123 14.4777 22.0746 14.6992 21.8254L27.7544 6.17537C28.1401 5.70663 28.0847 4.98935 27.616 4.57405C27.1472 4.18837 26.4299 4.24375 26.0146 4.71313L13.7327 19.425L9.39818 15.0911Z" fill="#5E2EFF"/>
<path d="M24.4698 2.44877C18.1206 -1.52522 9.97876 -0.586453 4.67839 4.71328C-1.55946 10.9505 -1.55946 21.1353 4.67839 27.3744C7.7986 30.4934 11.9104 32.0657 15.9951 32.0657C20.0805 32.0657 24.1936 30.4934 27.3125 27.3744C32.6406 22.0464 33.5497 13.8763 29.5487 7.52829C29.2171 7.00354 28.5268 6.83806 28.0027 7.16966C27.4786 7.49996 27.3125 8.1902 27.6441 8.71431C31.0946 14.1795 30.2936 21.1907 25.7118 25.7731C20.3567 31.1276 11.6078 31.1276 6.25266 25.7731C0.898204 20.418 0.898204 11.669 6.25266 6.31395C10.8338 1.75854 17.8179 0.959489 23.2825 4.35464C23.8072 4.68495 24.4968 4.51883 24.8284 3.99471C25.16 3.4706 24.9939 2.78037 24.4698 2.44877Z" fill="#5E2EFF"/>
</svg>
