<?xml version="1.0" encoding="utf-8"?>
<!-- Generator: Adobe Illustrator 24.3.0, SVG Export Plug-In . SVG Version: 6.00 Build 0)  -->
<svg version="1.1" id="Layer_1" xmlns="http://www.w3.org/2000/svg" xmlns:xlink="http://www.w3.org/1999/xlink" x="0px" y="0px"
	 viewBox="0 0 300 200" height="200px" width="300px" style="enable-background:new 0 0 300 200;" xml:space="preserve">
<style type="text/css">
	.st0{fill:#FAF6FF;}
	.st1{fill:#90FFE6;}
	.st2{fill:#4EFFD9;}
	.st3{fill:#00B2A3;}
	.st4{fill:#5E5ED7;}
	.st5{fill:none;stroke:#00B2A3;stroke-miterlimit:10;}
	.st6{fill:#857DFD;}
	.st7{fill:none;stroke:#5E5ED7;stroke-miterlimit:10;}
	.st8{fill:none;stroke:#4545B6;stroke-miterlimit:10;}
	.st9{fill:#FF9E99;}
	.st10{fill:#E98281;}
	.st11{fill:#3B4369;}
	.st12{fill:#141930;}
	.st13{fill:#FFFFFF;}
	.st14{fill:#88D1FE;}
	.st15{fill:#E6E6E6;}
	.st16{fill:#A6A6FF;}
	.st17{fill:#FFC2C2;}
	.st18{fill:#FF7D7D;}
	.st19{fill:#FF6969;}
	.st20{fill:#FF3F3F;}
	.st21{fill:#DA2B2B;}
	.st22{fill:#5656CD;}
	.st23{fill-rule:evenodd;clip-rule:evenodd;fill:#90192E;}
	.st24{fill-rule:evenodd;clip-rule:evenodd;fill:url(#SVGID_1_);}
</style>
<path class="st0" d="M162.8,25.6c66.1-8,118.7,67,78.5,112c-39.9,45.3-172,61.3-198.2,23.9S96.8,33.5,162.8,25.6z"/>
<g>
	<path class="st1" d="M84.2,88.8L82,119.6c0,0,29.7,14.5,49.2,6.5L131,99.6C131,99.6,107.2,111.7,84.2,88.8z"/>
	<ellipse transform="matrix(0.7887 -0.6148 0.6148 0.7887 -47.8678 89.3823)" class="st2" cx="106.1" cy="114.3" rx="8" ry="8.6"/>
	<g>
		<path class="st3" d="M90.6,109.3c-0.3-0.2-0.5-0.3-0.7-0.4c-0.2-0.1-0.4-0.3-0.5-0.5c-0.1-0.2-0.2-0.4-0.3-0.6
			c-0.1-0.2-0.1-0.5,0-0.7c0.1-0.4,0.3-0.8,0.6-1c0.3-0.2,0.7-0.4,1.3-0.4l0.2-0.8c0.1,0,0.2,0,0.3,0c0.1,0,0.2,0,0.4,0
			c0.2,0,0.4,0.1,0.6,0.2c0.1,0.1,0.2,0.3,0.1,0.6l0,0.1c0.4,0.1,0.7,0.3,0.9,0.5c0.2,0.2,0.3,0.4,0.2,0.7c0,0.2-0.1,0.3-0.2,0.4
			c-0.1,0.1-0.2,0.2-0.3,0.2c-0.1-0.1-0.3-0.2-0.5-0.3c-0.2-0.1-0.5-0.2-0.7-0.3c-0.3-0.1-0.5-0.1-0.6,0c-0.1,0.1-0.2,0.1-0.3,0.3
			c0,0.1,0,0.2,0.1,0.3c0.1,0.1,0.2,0.2,0.3,0.2l0.5,0.3c0.6,0.3,1,0.6,1.2,1c0.3,0.4,0.3,0.8,0.2,1.3c-0.1,0.4-0.3,0.8-0.6,1
			c-0.3,0.2-0.8,0.4-1.3,0.4l-0.2,0.8c-0.1,0-0.2,0-0.3,0c-0.1,0-0.2,0-0.4,0c-0.2,0-0.4-0.1-0.6-0.2c-0.1-0.1-0.2-0.3-0.1-0.6
			l0-0.1c-0.2-0.1-0.4-0.2-0.6-0.2c-0.2-0.1-0.3-0.2-0.4-0.3c-0.1-0.1-0.2-0.2-0.3-0.4c-0.1-0.1-0.1-0.3,0-0.4
			c0-0.2,0.1-0.3,0.3-0.4c0.1-0.1,0.3-0.2,0.4-0.2c0.1,0.2,0.3,0.3,0.6,0.5c0.2,0.2,0.5,0.3,0.8,0.3c0.3,0.1,0.5,0.1,0.7,0
			c0.1-0.1,0.2-0.2,0.3-0.3c0-0.1,0-0.2-0.1-0.3c-0.1-0.1-0.2-0.2-0.4-0.3L90.6,109.3z"/>
	</g>
	<g>
		<path class="st4" d="M121.7,115.1c-0.3-0.1-0.5-0.2-0.8-0.3c-0.2-0.1-0.4-0.2-0.6-0.4c-0.2-0.2-0.3-0.3-0.4-0.5
			c-0.1-0.2-0.1-0.4-0.1-0.7c0-0.4,0.2-0.8,0.5-1.1c0.3-0.3,0.7-0.5,1.2-0.5l0.1-0.8c0.1,0,0.1,0,0.3,0c0.1,0,0.2,0,0.4,0
			c0.3,0,0.4,0.1,0.6,0.2c0.1,0.1,0.2,0.3,0.2,0.6l0,0.1c0.4,0.1,0.7,0.2,0.9,0.4c0.2,0.2,0.3,0.4,0.3,0.7c0,0.2-0.1,0.3-0.1,0.4
			c-0.1,0.1-0.2,0.2-0.3,0.3c-0.1-0.1-0.3-0.2-0.6-0.3c-0.2-0.1-0.5-0.1-0.8-0.2c-0.3,0-0.5,0-0.6,0.1c-0.1,0.1-0.2,0.2-0.2,0.3
			c0,0.1,0,0.2,0.1,0.2c0.1,0.1,0.2,0.1,0.4,0.2l0.5,0.2c0.6,0.2,1,0.5,1.3,0.8c0.3,0.3,0.4,0.7,0.4,1.3c0,0.4-0.2,0.8-0.5,1.1
			c-0.3,0.3-0.7,0.5-1.3,0.5l-0.1,0.8c-0.1,0-0.1,0-0.3,0c-0.1,0-0.2,0-0.4,0c-0.3,0-0.4-0.1-0.6-0.2c-0.1-0.1-0.2-0.3-0.2-0.6
			l0-0.1c-0.2,0-0.4-0.1-0.6-0.2c-0.2-0.1-0.3-0.2-0.5-0.3c-0.1-0.1-0.2-0.2-0.3-0.3c-0.1-0.1-0.1-0.3-0.1-0.4
			c0-0.2,0.1-0.3,0.2-0.5c0.1-0.1,0.2-0.2,0.4-0.3c0.2,0.2,0.4,0.3,0.6,0.4c0.3,0.1,0.5,0.2,0.8,0.2c0.3,0,0.5,0,0.7-0.1
			c0.1-0.1,0.2-0.2,0.2-0.3c0-0.1,0-0.2-0.1-0.3c-0.1-0.1-0.2-0.1-0.4-0.2L121.7,115.1z"/>
	</g>
	<path class="st5" d="M85.7,91.9l-2,26.7c0,0,26.5,12.8,45.5,6.9l-0.2-23.3C129,102.2,106.4,111.4,85.7,91.9z"/>
	<path class="st5" d="M110.6,120.1c-2.9,2.3-7.4,1.6-9.8-1.6s-2.1-7.6,0.8-9.9c2.9-2.3,7.4-1.6,9.8,1.6
		C113.9,113.3,113.5,117.8,110.6,120.1z"/>
</g>
<g>
	<path class="st6" d="M90,77.9l31.5,28.5c0,0,40.9-19.9,48.6-47.8l-28.9-22.1C141.2,36.4,134.2,72.3,90,77.9z"/>
	<ellipse class="st4" cx="136.1" cy="75.8" rx="11.8" ry="10.9"/>
	<g>
		<path class="st4" d="M117.5,88.3c-0.4,0.2-0.7,0.3-1.1,0.4c-0.3,0.1-0.6,0.2-0.9,0.2c-0.3,0-0.6-0.1-0.9-0.2
			c-0.3-0.1-0.5-0.3-0.8-0.6c-0.4-0.5-0.6-1-0.6-1.5c0-0.6,0.2-1.1,0.7-1.7l-0.7-0.8c0-0.1,0.1-0.2,0.2-0.3c0.1-0.1,0.2-0.3,0.4-0.4
			c0.3-0.2,0.5-0.4,0.7-0.4c0.2,0,0.5,0.1,0.7,0.4l0.1,0.1c0.5-0.3,0.9-0.5,1.3-0.5c0.4-0.1,0.7,0.1,0.9,0.3
			c0.1,0.2,0.2,0.4,0.3,0.6c0,0.2,0,0.4,0,0.6c-0.2,0-0.5,0.1-0.8,0.3c-0.3,0.1-0.6,0.3-0.9,0.6c-0.3,0.3-0.5,0.5-0.6,0.7
			c-0.1,0.2,0,0.4,0.1,0.5c0.1,0.1,0.2,0.1,0.3,0.1c0.1,0,0.3-0.1,0.5-0.2l0.7-0.3c0.8-0.3,1.5-0.5,2.1-0.5c0.6,0,1.1,0.3,1.6,0.8
			c0.4,0.5,0.6,1,0.6,1.5c0,0.6-0.2,1.1-0.7,1.7l0.7,0.8c0,0.1-0.1,0.2-0.2,0.3c-0.1,0.1-0.2,0.3-0.4,0.4c-0.3,0.2-0.5,0.4-0.7,0.4
			c-0.2,0-0.5-0.1-0.7-0.4l-0.1-0.1c-0.3,0.2-0.5,0.3-0.8,0.4c-0.2,0.1-0.5,0.2-0.7,0.2c-0.2,0-0.4,0-0.6,0
			c-0.2-0.1-0.4-0.2-0.5-0.3c-0.2-0.2-0.3-0.4-0.3-0.6c0-0.2,0-0.4,0.1-0.6c0.3,0,0.7-0.1,1-0.2c0.4-0.1,0.7-0.3,1-0.6
			c0.3-0.3,0.5-0.5,0.6-0.7c0-0.2,0-0.4-0.1-0.5c-0.1-0.1-0.3-0.2-0.4-0.2c-0.2,0-0.4,0.1-0.6,0.2L117.5,88.3z"/>
	</g>
	<g>
		<path class="st4" d="M150,59.6c-0.4,0.2-0.7,0.4-1,0.5c-0.3,0.1-0.6,0.2-0.9,0.3c-0.3,0-0.6,0-0.9-0.1c-0.3-0.1-0.6-0.3-0.9-0.5
			c-0.4-0.4-0.7-0.9-0.8-1.4c-0.1-0.5,0.1-1.1,0.4-1.7l-0.8-0.7c0-0.1,0.1-0.2,0.2-0.3c0.1-0.1,0.2-0.3,0.3-0.4
			c0.2-0.3,0.5-0.4,0.7-0.5c0.2-0.1,0.5,0,0.8,0.3l0.1,0.1c0.4-0.4,0.8-0.6,1.2-0.7c0.4-0.1,0.7,0,1,0.2c0.2,0.2,0.3,0.3,0.3,0.5
			c0.1,0.2,0.1,0.4,0.1,0.6c-0.2,0.1-0.5,0.2-0.8,0.4c-0.3,0.2-0.6,0.4-0.8,0.7c-0.3,0.3-0.4,0.6-0.5,0.8c0,0.2,0,0.4,0.1,0.5
			c0.1,0.1,0.2,0.1,0.4,0.1c0.1,0,0.3-0.1,0.5-0.2l0.6-0.4c0.8-0.4,1.4-0.7,2-0.8c0.6-0.1,1.2,0.1,1.7,0.6c0.4,0.4,0.7,0.9,0.8,1.4
			c0.1,0.6-0.1,1.2-0.5,1.8l0.8,0.7c0,0.1-0.1,0.2-0.2,0.3c-0.1,0.1-0.2,0.3-0.3,0.4c-0.2,0.3-0.5,0.4-0.7,0.5
			c-0.2,0.1-0.5,0-0.8-0.3l-0.1-0.1c-0.2,0.2-0.5,0.4-0.7,0.5c-0.2,0.1-0.5,0.2-0.7,0.3c-0.2,0.1-0.4,0.1-0.6,0
			c-0.2,0-0.4-0.1-0.5-0.3c-0.2-0.2-0.3-0.4-0.3-0.6c0-0.2,0-0.4,0-0.6c0.3-0.1,0.6-0.2,1-0.3c0.3-0.2,0.7-0.4,0.9-0.7
			c0.3-0.3,0.4-0.6,0.5-0.8c0-0.2,0-0.4-0.2-0.5c-0.1-0.1-0.3-0.2-0.4-0.1c-0.2,0-0.4,0.1-0.6,0.3L150,59.6z"/>
	</g>
	<path class="st7" d="M94.5,79l27.2,24.6c0,0,36.2-18,45.8-43.4l-25.4-19.4C142.2,40.8,133.1,73,94.5,79z"/>
	<ellipse class="st8" cx="136.1" cy="75.8" rx="10" ry="9.3"/>
</g>
<g>
	<path class="st9" d="M216.3,90c-0.9-3.7-2.6-3.8-2.6-3.8s14.4-18.8,14.1-22.8c-0.3-3.9-3.3-4.2-6.2-1.6c0,0-0.9-2.3-3.5-1.7
		c-2.6,0.6-15,9.9-15,9.9s-26,14.2-42.9,20.7c-16.9,6.5-18.4,7.6-18.4,7.6c-0.8,3-1.3,5.4-1.3,5.4s6,16.8,5.8,26.8
		c-0.2,10-6.7,48.6-7.2,49.7c0,0,4.7-0.2,9.5-2.3c0,0,6.5-27.1,11.9-29.8c5.4-2.7,31.2-14.1,41.4-23c10.3-8.9,13-10.6,8.9-19.8
		C210.6,105.4,217.9,94.9,216.3,90z"/>
	<path class="st10" d="M146,126.6c0,0,33.1,8.6,41.8,1c8.7-7.7,15.2-20.6,14.4-32.1c-0.9-11.4-1.4-20.3-1.4-20.3L146,126.6z"/>
	<path class="st11" d="M172.1,134.2l-34.4-10.1c-4.9-1.4-7.7-6.5-6.2-11.4L155,32.6c1.4-4.9,6.5-7.7,11.4-6.2l34.4,10.1
		c4.9,1.4,7.7,6.5,6.2,11.4L183.5,128C182.1,132.9,177,135.6,172.1,134.2z"/>
	<path class="st12" d="M205.8,37.9l-1.7-0.5c3,0.9,4.7,4,3.8,7l-25.5,86.8c-0.9,3-4,4.7-7,3.8l1.7,0.5c3,0.9,6.2-0.8,7-3.8L209.7,45
		C210.5,42,208.8,38.8,205.8,37.9z"/>
	<path class="st13" d="M171.4,132.1l-32-9.4c-4.5-1.3-7-6-5.7-10.5l22.9-78c1.3-4.5,6-7,10.5-5.7l32,9.4c4.5,1.3,7,6,5.7,10.5
		l-22.9,78C180.6,130.9,175.9,133.4,171.4,132.1z"/>
	<path class="st14" d="M181.9,97.4l-32.7-9.6c-3-0.9-4.7-4-3.8-7l4.7-16.1c0.9-3,4-4.7,7-3.8l32.7,9.6c3,0.9,4.7,4,3.8,7l-4.7,16.1
		C188,96.6,184.8,98.3,181.9,97.4z"/>
	<path class="st15" d="M181.3,107.2l-36.9-10.8c-1.8-0.5-2.9-2.5-2.3-4.3l0,0c0.5-1.8,2.5-2.9,4.3-2.3l36.9,10.8
		c1.8,0.5,2.9,2.5,2.3,4.3v0C185,106.7,183.1,107.7,181.3,107.2z"/>
	<path class="st15" d="M178.6,116.4l-36.9-10.8c-1.8-0.5-2.9-2.5-2.3-4.3l0,0c0.5-1.8,2.5-2.9,4.3-2.3l36.9,10.8
		c1.8,0.5,2.9,2.5,2.3,4.3l0,0C182.3,115.9,180.4,116.9,178.6,116.4z"/>
	<path class="st9" d="M97.1,181.6c0,0,13.3-46.9,15.4-54.2c2.2-7.3,17.3-31.7,20.3-38.7c3-7,6.5-15.7,10-15.2
		c3.5,0.5,4.1,9.8,1.9,14.9c-2.2,5.1-4.5,15.4-4.5,15.4s6,16.8,5.8,26.8c-0.2,10-4.8,48-5.4,49.1c-0.5,1.1-16.4,2.2-26.5,2.5
		C106.7,182.5,97.1,181.6,97.1,181.6z"/>
	<path class="st13" d="M179,87.6l-29.8-8.8c-0.7-0.2-1.1-0.9-0.9-1.7v0c0.2-0.7,0.9-1.1,1.7-0.9l29.8,8.8c0.7,0.2,1.1,0.9,0.9,1.7
		l0,0C180.5,87.4,179.7,87.8,179,87.6z"/>
	<path class="st13" d="M155.3,84.4l-7.1-2.1c-0.7-0.2-1.1-0.9-0.9-1.7l0,0c0.2-0.7,0.9-1.1,1.7-0.9l7.1,2.1c0.7,0.2,1.1,0.9,0.9,1.7
		l0,0C156.8,84.2,156,84.6,155.3,84.4z"/>
	<path class="st13" d="M159.9,70l-7-2c-0.8-0.2-1.2-1-1-1.8l0.6-2c0.2-0.8,1-1.2,1.8-1l7,2c0.8,0.2,1.2,1,1,1.8l-0.6,2
		C161.4,69.8,160.6,70.2,159.9,70z"/>
	<path class="st13" d="M166.7,87.7l-7.1-2.1c-0.7-0.2-1.1-0.9-0.9-1.7l0,0c0.2-0.7,0.9-1.1,1.7-0.9l7.1,2.1c0.7,0.2,1.1,0.9,0.9,1.7
		l0,0C168.1,87.6,167.4,88,166.7,87.7z"/>
	<path class="st9" d="M204.8,85c0,0-16.1-3.4-22.5-3.1c-6.4,0.3-6.6,2.4-5.4,4.5c1.2,2,10.8,5.6,18.6,6.2l-1.5,5.7
		c0,0-4.3,0.9-10.8,3c-6.5,2-10.8,3.5-8.9,7.9c1.9,4.3,18.7-0.5,18.7-0.5s2.2-0.4,3.4,0.9c1.2,1.4,3,5.6,3,5.6s6.6-2.3,5.6-10.2
		C204.8,104.9,212.1,91.5,204.8,85z"/>
	<path class="st10" d="M195.5,92.6c0,0,4.7,1.7,6.1,3.4c1.4,1.7,2,3.4,2,3.4s-4.3-2.4-9.6-1.1L195.5,92.6z"/>
	<polygon class="st10" points="221.5,61.8 201.4,83.6 201.4,84.3 202.1,84.5 	"/>
	<path class="st10" d="M158.5,149.8c0,0-13,9.5-28.6,10.7c0,0,12.8,6,18.4,17.5C148.3,178,153.8,156.6,158.5,149.8z"/>
</g>
<g>
	
		<ellipse transform="matrix(0.2293 -0.9734 0.9734 0.2293 134.9657 216.0061)" class="st6" cx="203.9" cy="22.8" rx="3.5" ry="11.4"/>
	<path class="st4" d="M203.1,26.2c-6.1-1.4-10.7-4.1-10.3-6l-0.7,2.8c-0.4,1.9,4.1,4.6,10.3,6c6.1,1.4,11.4,1.1,11.9-0.8l0.7-2.8
		C214.5,27.3,209.2,27.7,203.1,26.2z"/>
	<path class="st16" d="M211.8,24.7c-0.3,1.4-4.1,1.6-8.5,0.6c-4.4-1-7.7-3-7.4-4.3c0.3-1.4,4.1-1.6,8.5-0.6
		C208.9,21.3,212.2,23.3,211.8,24.7z"/>
	<path class="st4" d="M204.3,20.9c4,1,7.2,2.7,7.4,4c0.1-0.1,0.1-0.2,0.1-0.3c0.3-1.4-3-3.3-7.4-4.3c-4.4-1-8.2-0.8-8.5,0.6
		c0,0.1,0,0.2,0,0.3C196.7,20.1,200.3,20,204.3,20.9z"/>
</g>
<g>
	<g>
		<path class="st17" d="M94.2,30.4c-0.1,0-0.1,0-0.2,0c-0.9-0.3-1.3-1.2-1-2.1c0.2-0.5,4.1-12,12.2-10.5c0.1,0,0.2,0,0.3,0
			c7.9,1.7,6.9,14,6.9,14.6c-0.1,0.9-0.9,1.6-1.8,1.5c-0.9-0.1-1.6-0.9-1.5-1.8c0-0.1,0.7-10.1-4.5-11.1c-5.3-0.9-8.5,8.3-8.5,8.3
			C95.8,30.1,95,30.6,94.2,30.4z"/>
	</g>
	<path class="st18" d="M89.1,27.7l-4.5,21.2l27,5.7l4.5-21.2L89.1,27.7z M101.6,47.4l-6-1.3l2.5-3.7c-1.3-0.9-2-2.5-1.7-4.1
		c0.5-2.2,2.6-3.5,4.7-3.1c2.2,0.5,3.5,2.6,3.1,4.7c-0.4,1.7-1.7,2.8-3.3,3.1L101.6,47.4z"/>
	<path class="st19" d="M116.1,33.4l-4.5,21.2l2.7,0.6l4.5-21.2L116.1,33.4z"/>
	<path class="st20" d="M101.6,47.4l-6-1.3l2.5-3.7c-1.3-0.9-2-2.5-1.7-4.1c0.5-2.2,2.6-3.5,4.7-3.1c2.2,0.5,3.5,2.6,3.1,4.7
		c-0.4,1.7-1.7,2.8-3.3,3.1L101.6,47.4z"/>
	<path class="st21" d="M97.6,38.6c0.4-1.9,2.2-3.3,4.1-3.1c-0.2-0.1-0.4-0.1-0.6-0.2c-2.2-0.5-4.3,0.9-4.7,3.1
		c-0.3,1.6,0.4,3.2,1.7,4.1l-2.5,3.7l1.2,0.3l2.5-3.7C98,41.8,97.3,40.2,97.6,38.6z"/>
</g>
<g>
	<path class="st22" d="M87.7,147.4c-3.5,1.7-5,5.8-3.4,9.4c1.7,3.5,5.8,5,9.4,3.4c3.5-1.7,5-5.8,3.4-9.4
		C95.4,147.2,91.2,145.7,87.7,147.4z M92.9,158.2c-2.5,1.2-5.4,0.1-6.6-2.4c-1.2-2.5-0.1-5.4,2.4-6.6c2.5-1.2,5.4-0.1,6.6,2.4
		C96.4,154.1,95.3,157,92.9,158.2z"/>
	
		<rect x="94.9" y="144.4" transform="matrix(0.9044 -0.4266 0.4266 0.9044 -51.7681 60.0109)" class="st22" width="26.3" height="2.4"/>
	
		<rect x="117.7" y="141.6" transform="matrix(0.9044 -0.4266 0.4266 0.9044 -50.2109 64.9333)" class="st22" width="4.2" height="5.8"/>
	
		<rect x="113.5" y="143.5" transform="matrix(0.9044 -0.4266 0.4266 0.9044 -50.8551 63.165)" class="st22" width="4.2" height="3.2"/>
</g>
<path class="st23" d="M181.4,53.2l4.4-2.4c1.2-0.7,1.7-2.2,1-3.4c-0.7-1.2-2.2-1.7-3.4-1l-4.4,2.4l-2.4-4.4c-0.7-1.2-2.2-1.7-3.4-1
	c-1.2,0.7-1.7,2.2-1,3.4l2.4,4.4l-4.4,2.4c-1.2,0.7-1.7,2.2-1,3.4c0.7,1.2,2.2,1.7,3.4,1l4.4-2.4l2.4,4.4c0.7,1.2,2.2,1.7,3.4,1
	c1.2-0.7,1.7-2.2,1-3.4L181.4,53.2z M181.4,53.2"/>
<linearGradient id="SVGID_1_" gradientUnits="userSpaceOnUse" x1="169.7445" y1="55.4205" x2="186.2126" y2="45.9736">
	<stop  offset="0" style="stop-color:#FF3F3F"/>
	<stop  offset="1" style="stop-color:#FF6278"/>
</linearGradient>
<path class="st24" d="M181.6,51.6l4.4-2.4c1.2-0.7,1.7-2.2,1-3.4c-0.7-1.2-2.2-1.7-3.4-1l-4.4,2.4l-2.4-4.4c-0.7-1.2-2.2-1.7-3.4-1
	c-1.2,0.7-1.7,2.2-1,3.4l2.4,4.4l-4.4,2.4c-1.2,0.7-1.7,2.2-1,3.4c0.7,1.2,2.2,1.7,3.4,1l4.4-2.4l2.4,4.4c0.7,1.2,2.2,1.7,3.4,1
	c1.2-0.7,1.7-2.2,1-3.4L181.6,51.6z M181.6,51.6"/>
</svg>
