<svg width="287" height="44" viewBox="0 0 287 44" fill="none" xmlns="http://www.w3.org/2000/svg">
<path fill-rule="evenodd" clip-rule="evenodd" d="M7.10864 42.591C7.68528 42.7211 8.28519 42.7897 8.90113 42.7897H25.0683C31.4379 42.7897 36.6016 37.6261 36.6016 31.2565C36.6016 26.093 33.2084 21.7221 28.5302 20.2518L7.10864 42.591Z" fill="#6E58F7"/>
<path d="M0 7.63632C0 3.4189 3.4189 0 7.63632 0H25.5422C29.7596 0 33.1785 3.4189 33.1785 7.63632V17.4333C33.1785 19.4723 32.363 21.4267 30.9137 22.861L13.0078 40.5813C8.18581 45.3533 0 41.9376 0 35.1535V7.63632Z" fill="url(#paint0_linear_87_2)"/>
<path d="M14.7458 11.4545C14.7458 9.05498 16.6911 7.10974 19.0907 7.10974H33.1783V15.7993H19.0907C16.6911 15.7993 14.7458 13.8541 14.7458 11.4545V11.4545Z" fill="white"/>
<path d="M12.5949 13.4293C13.6871 13.4293 14.5725 12.4862 14.5725 11.3228C14.5725 10.1593 13.6871 9.21619 12.5949 9.21619C11.5028 9.21619 10.6174 10.1593 10.6174 11.3228C10.6174 12.4862 11.5028 13.4293 12.5949 13.4293Z" fill="#6E58F7"/>
<path fill-rule="evenodd" clip-rule="evenodd" d="M7.18604 43.0546C7.76895 43.1861 8.37539 43.2555 8.99803 43.2555H25.3412C31.7801 43.2555 36.9999 38.0357 36.9999 31.5967C36.9999 26.377 33.5698 21.9585 28.8407 20.4723L7.18604 43.0546Z" fill="#6E58F7"/>
<path d="M0 7.71943C0 3.45611 3.45611 0 7.71943 0H25.8202C30.0835 0 33.5396 3.45611 33.5396 7.71943V17.623C33.5396 19.6843 32.7152 21.6599 31.2501 23.1098L13.1494 41.0229C8.2749 45.8469 0 42.394 0 35.5361V7.71943Z" fill="url(#paint1_linear_87_2)"/>
<path d="M14.9062 11.5792C14.9062 9.15354 16.8727 7.18713 19.2983 7.18713H33.5394V15.9713H19.2983C16.8727 15.9713 14.9062 14.0049 14.9062 11.5792V11.5792Z" fill="white"/>
<path d="M19.407 13.7088C20.511 13.7088 21.406 12.7554 21.406 11.5793C21.406 10.4032 20.511 9.44983 19.407 9.44983C18.303 9.44983 17.408 10.4032 17.408 11.5793C17.408 12.7554 18.303 13.7088 19.407 13.7088Z" fill="#6E58F7"/>
<path d="M53.269 31.8788V8H62.8072C65.2109 8 66.959 8.54857 68.0515 9.6457C69.166 10.7213 69.7232 12.2595 69.7232 14.2601C69.7232 15.2067 69.5811 16.0457 69.2971 16.7771C69.0349 17.487 68.6525 18.0786 68.1499 18.5519C67.6473 19.0036 67.0464 19.3156 66.3471 19.4877C66.8716 19.6167 67.3741 19.8211 67.8549 20.1008C68.3575 20.3804 68.8054 20.7569 69.1987 21.2302C69.6139 21.7034 69.9308 22.2843 70.1493 22.9727C70.3896 23.6396 70.5098 24.414 70.5098 25.296C70.5098 26.9095 70.2258 28.2002 69.6576 29.1683C69.1113 30.1363 68.2919 30.8355 67.1993 31.2657C66.1286 31.6745 64.8066 31.8788 63.2333 31.8788H53.269ZM58.1201 27.5871H63.1022C63.6703 27.5871 64.162 27.4795 64.5772 27.2644C64.9923 27.0493 65.3092 26.7158 65.5277 26.2641C65.7681 25.8123 65.8882 25.21 65.8882 24.457C65.8882 23.8332 65.7681 23.3061 65.5277 22.8759C65.2873 22.4456 64.9596 22.1122 64.5444 21.8755C64.1292 21.6389 63.6485 21.5206 63.1022 21.5206H58.1201V27.5871ZM58.1201 17.842H62.84C63.5392 17.842 64.0855 17.5946 64.4788 17.0998C64.894 16.5835 65.1016 15.9166 65.1016 15.0991C65.1234 14.045 64.9049 13.3136 64.4461 12.9048C63.9872 12.4961 63.43 12.2917 62.7744 12.2917H58.1201V17.842Z" fill="#43505C"/>
<path d="M80.6692 32.0402C78.7244 32.0402 77.173 31.7928 76.0149 31.298C74.8567 30.7817 74.0154 29.8782 73.491 28.5874C72.9884 27.2967 72.7371 25.5111 72.7371 23.2308C72.7371 20.886 72.9775 19.0682 73.4582 17.7774C73.939 16.4867 74.7475 15.5831 75.8837 15.0668C77.02 14.5505 78.5605 14.2924 80.5053 14.2924C82.2534 14.2924 83.6519 14.4645 84.7008 14.8087C85.7497 15.1529 86.5035 15.7552 86.9624 16.6157C87.4432 17.4762 87.6835 18.6917 87.6835 20.2621C87.6835 21.4238 87.4432 22.3488 86.9624 23.0372C86.5035 23.7041 85.848 24.1881 84.9958 24.4893C84.1436 24.769 83.1384 24.9088 81.9803 24.9088H77.5554C77.5991 25.7908 77.7302 26.5007 77.9487 27.0385C78.1891 27.5548 78.6152 27.9313 79.227 28.1679C79.8607 28.3831 80.7675 28.4906 81.9475 28.4906H87.0935V31.298C86.2413 31.4701 85.3017 31.6422 84.2747 31.8143C83.2695 31.9649 82.0677 32.0402 80.6692 32.0402ZM77.4898 22.0692H81.4886C82.1442 22.0692 82.6249 21.9401 82.9308 21.6819C83.2368 21.4238 83.3897 20.9613 83.3897 20.2944C83.3897 19.6705 83.2914 19.1757 83.0947 18.81C82.8981 18.4228 82.5921 18.1539 82.177 18.0033C81.7618 17.8312 81.2046 17.7451 80.5053 17.7451C79.7624 17.7451 79.1724 17.8742 78.7354 18.1324C78.2983 18.369 77.9815 18.7993 77.7848 19.4231C77.5882 20.047 77.4898 20.929 77.4898 22.0692Z" fill="#43505C"/>
<path d="M97.2253 31.8788C95.8705 31.8788 94.767 31.6852 93.9148 31.298C93.0844 30.9108 92.4835 30.2654 92.112 29.3619C91.7405 28.4584 91.5767 27.2429 91.6204 25.7155L91.7843 18.3905H89.031V15.325L91.9481 14.5505L92.6037 9.71024H96.4386V14.5505H100.569V18.3905H96.4386V25.6832C96.4386 26.1565 96.4823 26.5437 96.5697 26.8449C96.6571 27.1461 96.7773 27.3935 96.9303 27.5871C97.1051 27.7592 97.3017 27.8883 97.5203 27.9743C97.7388 28.0604 97.9573 28.1142 98.1758 28.1357L100.405 28.3293V31.8788H97.2253Z" fill="#43505C"/>
<path d="M109.637 31.8788C108.282 31.8788 107.179 31.6852 106.327 31.298C105.496 30.9108 104.895 30.2654 104.524 29.3619C104.152 28.4584 103.988 27.2429 104.032 25.7155L104.196 18.3905H101.443V15.325L104.36 14.5505L105.015 9.71024H108.85V14.5505H112.98V18.3905H108.85V25.6832C108.85 26.1565 108.894 26.5437 108.981 26.8449C109.069 27.1461 109.189 27.3935 109.342 27.5871C109.517 27.7592 109.714 27.8883 109.932 27.9743C110.151 28.0604 110.369 28.1142 110.588 28.1357L112.816 28.3293V31.8788H109.637Z" fill="#43505C"/>
<path d="M122.77 32.0402C120.825 32.0402 119.274 31.7928 118.116 31.298C116.957 30.7817 116.116 29.8782 115.592 28.5874C115.089 27.2967 114.838 25.5111 114.838 23.2308C114.838 20.886 115.078 19.0682 115.559 17.7774C116.04 16.4867 116.848 15.5831 117.984 15.0668C119.121 14.5505 120.661 14.2924 122.606 14.2924C124.354 14.2924 125.753 14.4645 126.802 14.8087C127.85 15.1529 128.604 15.7552 129.063 16.6157C129.544 17.4762 129.784 18.6917 129.784 20.2621C129.784 21.4238 129.544 22.3488 129.063 23.0372C128.604 23.7041 127.949 24.1881 127.097 24.4893C126.244 24.769 125.239 24.9088 124.081 24.9088H119.656C119.7 25.7908 119.831 26.5007 120.049 27.0385C120.29 27.5548 120.716 27.9313 121.328 28.1679C121.961 28.3831 122.868 28.4906 124.048 28.4906H129.194V31.298C128.342 31.4701 127.402 31.6422 126.375 31.8143C125.37 31.9649 124.168 32.0402 122.77 32.0402ZM119.591 22.0692H123.589C124.245 22.0692 124.726 21.9401 125.032 21.6819C125.337 21.4238 125.49 20.9613 125.49 20.2944C125.49 19.6705 125.392 19.1757 125.195 18.81C124.999 18.4228 124.693 18.1539 124.278 18.0033C123.863 17.8312 123.305 17.7451 122.606 17.7451C121.863 17.7451 121.273 17.8742 120.836 18.1324C120.399 18.369 120.082 18.7993 119.886 19.4231C119.689 20.047 119.591 20.929 119.591 22.0692Z" fill="#43505C"/>
<path d="M132.639 31.8788V14.5505H136.376L137.49 17.1966C138.124 16.4006 138.834 15.723 139.621 15.1637C140.429 14.6043 141.38 14.3247 142.473 14.3247C142.713 14.3247 142.953 14.3354 143.194 14.3569C143.456 14.3784 143.696 14.4215 143.915 14.486V19.3908C143.587 19.3478 143.237 19.3156 142.866 19.294C142.516 19.251 142.178 19.2295 141.85 19.2295C141.216 19.2295 140.637 19.3048 140.113 19.4554C139.61 19.5845 139.14 19.7888 138.703 20.0685C138.288 20.3266 137.884 20.6708 137.49 21.1011V31.8788H132.639Z" fill="#43505C"/>
<path d="M154.524 31.8788V8H164.75C165.537 8 166.334 8.09681 167.143 8.29042C167.973 8.46252 168.727 8.82823 169.404 9.38755C170.104 9.92536 170.661 10.7428 171.076 11.84C171.513 12.9371 171.732 14.3892 171.732 16.1962C171.732 18.0033 171.513 19.4661 171.076 20.5848C170.661 21.7034 170.115 22.5532 169.437 23.134C168.76 23.7149 168.028 24.1021 167.241 24.2957C166.454 24.4893 165.69 24.5861 164.947 24.5861C164.553 24.5861 164.094 24.5754 163.57 24.5538C163.046 24.5108 162.51 24.457 161.964 24.3925C161.44 24.328 160.948 24.2742 160.489 24.2312C160.03 24.1666 159.659 24.1128 159.375 24.0698V31.8788H154.524ZM159.375 20.2944H164.193C164.761 20.2944 165.242 20.1653 165.635 19.9071C166.05 19.6275 166.356 19.1972 166.553 18.6164C166.749 18.0141 166.848 17.2181 166.848 16.2285C166.848 15.2605 166.739 14.4968 166.52 13.9374C166.323 13.3566 166.028 12.9371 165.635 12.679C165.264 12.4208 164.816 12.2917 164.291 12.2917H159.375V20.2944Z" fill="#43505C"/>
<path d="M178.061 32.0724C176.728 32.0724 175.646 31.6852 174.816 30.9108C173.985 30.1363 173.57 29.0607 173.57 27.6839V26.135C173.57 24.8227 174.04 23.7471 174.98 22.9081C175.919 22.0476 177.383 21.6174 179.372 21.6174H183.862V20.4234C183.862 19.8856 183.764 19.4446 183.567 19.1004C183.371 18.7347 182.999 18.4766 182.453 18.326C181.928 18.1539 181.12 18.0678 180.027 18.0678H174.75V15.2927C175.602 15.0346 176.586 14.8087 177.7 14.6151C178.836 14.4215 180.202 14.3247 181.797 14.3247C183.261 14.3247 184.507 14.4968 185.534 14.841C186.583 15.1852 187.369 15.7768 187.894 16.6157C188.44 17.4547 188.713 18.6164 188.713 20.1008V31.8788H184.878L184.092 30.0395C183.939 30.2116 183.676 30.4052 183.305 30.6204C182.934 30.8355 182.475 31.0614 181.928 31.298C181.404 31.5131 180.803 31.696 180.126 31.8466C179.47 31.9972 178.782 32.0724 178.061 32.0724ZM180.519 28.7488C180.737 28.7488 180.978 28.7273 181.24 28.6842C181.524 28.6197 181.808 28.5552 182.092 28.4906C182.398 28.4046 182.671 28.3293 182.912 28.2647C183.174 28.1787 183.381 28.1034 183.534 28.0389C183.709 27.9743 183.818 27.9313 183.862 27.9098V23.8762L180.912 24.0698C180.06 24.1343 179.426 24.3495 179.011 24.7152C178.618 25.0809 178.421 25.5757 178.421 26.1995V26.9095C178.421 27.3397 178.509 27.6947 178.683 27.9743C178.88 28.254 179.131 28.4584 179.437 28.5874C179.765 28.695 180.126 28.7488 180.519 28.7488Z" fill="#43505C"/>
<path d="M197.524 39.5265L199.425 31.8788C198.442 31.8788 197.578 31.696 196.836 31.3303C196.093 30.9646 195.47 30.4483 194.967 29.7814C194.487 29.093 194.115 28.2432 193.853 27.2321L190.542 14.5505H195.59L198.376 26.2641C198.485 26.6728 198.627 26.9955 198.802 27.2321C198.977 27.4688 199.163 27.6409 199.359 27.7484C199.556 27.8345 199.731 27.899 199.884 27.9421C200.059 27.9636 200.19 27.9743 200.277 27.9743L203.457 14.5505H208.373L203.129 36.3319L201.555 39.5265H197.524Z" fill="#43505C"/>
<path d="M210.351 31.8788V14.5505H214.35L215.202 16.3253C215.967 15.766 216.797 15.282 217.693 14.8732C218.611 14.4645 219.736 14.2601 221.069 14.2601C222.183 14.2601 223.101 14.486 223.822 14.9378C224.565 15.3895 225.122 15.9811 225.494 16.7125C225.996 16.3253 226.575 15.9489 227.231 15.5831C227.908 15.2174 228.629 14.9055 229.394 14.6474C230.159 14.3892 230.913 14.2601 231.656 14.2601C233.076 14.2601 234.191 14.529 234.999 15.0668C235.83 15.5831 236.409 16.3253 236.736 17.2934C237.064 18.2399 237.228 19.3586 237.228 20.6493V31.8788H232.377V21.0688C232.377 20.5095 232.268 20.047 232.049 19.6813C231.853 19.3156 231.568 19.0359 231.197 18.8423C230.826 18.6487 230.378 18.5519 229.853 18.5519C229.198 18.5519 228.531 18.6917 227.854 18.9714C227.198 19.2295 226.608 19.5414 226.084 19.9071C226.127 20.1223 226.16 20.3374 226.182 20.5525C226.204 20.7461 226.215 20.9505 226.215 21.1656V31.8788H221.364V21.0688C221.364 20.5095 221.255 20.047 221.036 19.6813C220.839 19.3156 220.555 19.0359 220.184 18.8423C219.812 18.6487 219.364 18.5519 218.84 18.5519C218.381 18.5519 217.933 18.6056 217.496 18.7132C217.081 18.8208 216.677 18.9714 216.283 19.165C215.912 19.3586 215.551 19.5845 215.202 19.8426V31.8788H210.351Z" fill="#43505C"/>
<path d="M247.935 32.0402C245.99 32.0402 244.439 31.7928 243.281 31.298C242.123 30.7817 241.281 29.8782 240.757 28.5874C240.254 27.2967 240.003 25.5111 240.003 23.2308C240.003 20.886 240.243 19.0682 240.724 17.7774C241.205 16.4867 242.013 15.5831 243.15 15.0668C244.286 14.5505 245.826 14.2924 247.771 14.2924C249.519 14.2924 250.918 14.4645 251.967 14.8087C253.016 15.1529 253.769 15.7552 254.228 16.6157C254.709 17.4762 254.949 18.6917 254.949 20.2621C254.949 21.4238 254.709 22.3488 254.228 23.0372C253.769 23.7041 253.114 24.1881 252.262 24.4893C251.41 24.769 250.404 24.9088 249.246 24.9088H244.821C244.865 25.7908 244.996 26.5007 245.215 27.0385C245.455 27.5548 245.881 27.9313 246.493 28.1679C247.127 28.3831 248.033 28.4906 249.213 28.4906H254.359V31.298C253.507 31.4701 252.568 31.6422 251.541 31.8143C250.535 31.9649 249.334 32.0402 247.935 32.0402ZM244.756 22.0692H248.755C249.41 22.0692 249.891 21.9401 250.197 21.6819C250.503 21.4238 250.656 20.9613 250.656 20.2944C250.656 19.6705 250.557 19.1757 250.361 18.81C250.164 18.4228 249.858 18.1539 249.443 18.0033C249.028 17.8312 248.47 17.7451 247.771 17.7451C247.028 17.7451 246.438 17.8742 246.001 18.1324C245.564 18.369 245.247 18.7993 245.051 19.4231C244.854 20.047 244.756 20.929 244.756 22.0692Z" fill="#43505C"/>
<path d="M257.805 31.8788V14.5505H261.803L262.656 16.3253C263.311 15.7875 264.131 15.3142 265.114 14.9055C266.119 14.4753 267.146 14.2601 268.195 14.2601C269.637 14.2601 270.752 14.5398 271.538 15.0991C272.325 15.6584 272.871 16.4114 273.177 17.3579C273.505 18.283 273.669 19.3156 273.669 20.4557V31.8788H268.818V21.0688C268.818 20.5095 268.708 20.047 268.49 19.6813C268.293 19.3156 268.009 19.0359 267.638 18.8423C267.266 18.6487 266.818 18.5519 266.294 18.5519C265.835 18.5519 265.387 18.6056 264.95 18.7132C264.535 18.8208 264.131 18.9714 263.737 19.165C263.366 19.3586 263.005 19.5845 262.656 19.8426V31.8788H257.805Z" fill="#43505C"/>
<path d="M283.657 31.8788C282.302 31.8788 281.199 31.6852 280.346 31.298C279.516 30.9108 278.915 30.2654 278.544 29.3619C278.172 28.4584 278.008 27.2429 278.052 25.7155L278.216 18.3905H275.463V15.325L278.38 14.5505L279.035 9.71024H282.87V14.5505H287V18.3905H282.87V25.6832C282.87 26.1565 282.914 26.5437 283.001 26.8449C283.089 27.1461 283.209 27.3935 283.362 27.5871C283.537 27.7592 283.733 27.8883 283.952 27.9743C284.17 28.0604 284.389 28.1142 284.607 28.1357L286.836 28.3293V31.8788H283.657Z" fill="#43505C"/>
<defs>
<linearGradient id="paint0_linear_87_2" x1="4.67412" y1="38.623" x2="33.1785" y2="-4.58945e-06" gradientUnits="userSpaceOnUse">
<stop stop-color="#A293FF"/>
<stop offset="1" stop-color="#6E58F7"/>
</linearGradient>
<linearGradient id="paint1_linear_87_2" x1="4.72499" y1="39.0434" x2="33.5396" y2="-4.97228e-06" gradientUnits="userSpaceOnUse">
<stop stop-color="#A293FF"/>
<stop offset="1" stop-color="#6E58F7"/>
</linearGradient>
</defs>
</svg>
