<svg width="400" height="130" viewBox="0 0 400 130" fill="none" xmlns="http://www.w3.org/2000/svg">
<rect width="400" height="130" rx="8" fill="#E9E4FF"/>
<rect x="32" y="72" width="148" height="34" rx="4" fill="#6E58F7"/>
<path d="M48.7831 93.668C48.0738 93.668 47.4298 93.528 46.8511 93.248C46.2818 92.968 45.8244 92.5387 45.4791 91.96C45.1431 91.3813 44.9751 90.6533 44.9751 89.776V83.7H46.6551V89.79C46.6551 90.322 46.7438 90.7607 46.9211 91.106C47.0984 91.4513 47.3458 91.7127 47.6631 91.89C47.9898 92.058 48.3724 92.142 48.8111 92.142C49.2591 92.142 49.6418 92.058 49.9591 91.89C50.2858 91.7127 50.5331 91.4513 50.7011 91.106C50.8784 90.7607 50.9671 90.322 50.9671 89.79V83.7H52.6471V89.776C52.6471 90.6533 52.4744 91.3813 52.1291 91.96C51.7838 92.5387 51.3171 92.968 50.7291 93.248C50.1411 93.528 49.4924 93.668 48.7831 93.668ZM54.478 96.58V86.444H55.976L56.158 87.466C56.3074 87.2607 56.4847 87.0693 56.69 86.892C56.9047 86.7053 57.1614 86.556 57.46 86.444C57.768 86.332 58.118 86.276 58.51 86.276C59.1727 86.276 59.756 86.4393 60.26 86.766C60.7734 87.0927 61.1747 87.536 61.464 88.096C61.7534 88.6467 61.898 89.2767 61.898 89.986C61.898 90.6953 61.7487 91.33 61.45 91.89C61.1607 92.4407 60.7594 92.8747 60.246 93.192C59.742 93.5093 59.1634 93.668 58.51 93.668C57.978 93.668 57.5114 93.57 57.11 93.374C56.718 93.1687 56.4007 92.8793 56.158 92.506V96.58H54.478ZM58.16 92.212C58.552 92.212 58.902 92.1187 59.21 91.932C59.518 91.7453 59.756 91.484 59.924 91.148C60.1014 90.812 60.19 90.4247 60.19 89.986C60.19 89.538 60.1014 89.146 59.924 88.81C59.756 88.474 59.518 88.2127 59.21 88.026C58.902 87.8393 58.552 87.746 58.16 87.746C57.7587 87.746 57.404 87.8393 57.096 88.026C56.7974 88.2127 56.5594 88.474 56.382 88.81C56.214 89.146 56.13 89.5333 56.13 89.972C56.13 90.42 56.214 90.812 56.382 91.148C56.5594 91.4747 56.7974 91.736 57.096 91.932C57.404 92.1187 57.7587 92.212 58.16 92.212ZM66.0867 96.748C65.424 96.748 64.8407 96.664 64.3367 96.496C63.842 96.3373 63.4547 96.09 63.1747 95.754C62.904 95.4273 62.7687 95.0167 62.7687 94.522C62.7687 94.2327 62.8387 93.948 62.9787 93.668C63.128 93.3973 63.3473 93.1453 63.6367 92.912C63.9353 92.6693 64.3133 92.4593 64.7707 92.282L65.5127 93.094C65.0647 93.2527 64.752 93.444 64.5747 93.668C64.3973 93.892 64.3087 94.1207 64.3087 94.354C64.3087 94.5967 64.3833 94.7973 64.5327 94.956C64.6913 95.124 64.9013 95.25 65.1627 95.334C65.4333 95.418 65.7367 95.46 66.0727 95.46C66.3993 95.46 66.684 95.4133 66.9267 95.32C67.1693 95.236 67.356 95.1147 67.4867 94.956C67.6267 94.7973 67.6967 94.606 67.6967 94.382C67.6967 94.102 67.5987 93.8733 67.4027 93.696C67.2067 93.528 66.8193 93.4253 66.2407 93.388C65.746 93.3507 65.312 93.2993 64.9387 93.234C64.5653 93.1593 64.2433 93.0753 63.9727 92.982C63.7113 92.8887 63.4873 92.786 63.3007 92.674C63.114 92.5527 62.96 92.4313 62.8387 92.31V91.988L64.3087 90.448L65.5547 90.854L63.9027 92.464L64.3367 91.652C64.43 91.7173 64.5233 91.778 64.6167 91.834C64.7193 91.89 64.8453 91.9413 64.9947 91.988C65.1533 92.0253 65.3587 92.0627 65.6107 92.1C65.8627 92.1373 66.1893 92.1747 66.5907 92.212C67.216 92.2587 67.7247 92.3707 68.1167 92.548C68.5087 92.7253 68.798 92.9633 68.9847 93.262C69.1713 93.5607 69.2647 93.92 69.2647 94.34C69.2647 94.7507 69.148 95.138 68.9147 95.502C68.6907 95.866 68.3453 96.1647 67.8787 96.398C67.412 96.6313 66.8147 96.748 66.0867 96.748ZM66.0867 91.386C65.4987 91.386 64.99 91.274 64.5607 91.05C64.1407 90.8167 63.8187 90.5087 63.5947 90.126C63.3707 89.734 63.2587 89.3047 63.2587 88.838C63.2587 88.362 63.3707 87.9327 63.5947 87.55C63.8187 87.1673 64.1407 86.8593 64.5607 86.626C64.99 86.3927 65.4987 86.276 66.0867 86.276C66.6747 86.276 67.1787 86.3927 67.5987 86.626C68.0187 86.8593 68.3407 87.1673 68.5647 87.55C68.7887 87.9327 68.9007 88.362 68.9007 88.838C68.9007 89.3047 68.7887 89.734 68.5647 90.126C68.3407 90.5087 68.0187 90.8167 67.5987 91.05C67.1787 91.274 66.6747 91.386 66.0867 91.386ZM66.0867 90.084C66.488 90.084 66.81 89.9767 67.0527 89.762C67.2953 89.5473 67.4167 89.2393 67.4167 88.838C67.4167 88.4367 67.2953 88.1333 67.0527 87.928C66.81 87.7133 66.488 87.606 66.0867 87.606C65.6853 87.606 65.3587 87.7133 65.1067 87.928C64.8547 88.1333 64.7287 88.4367 64.7287 88.838C64.7287 89.2393 64.8547 89.5473 65.1067 89.762C65.3587 89.9767 65.6853 90.084 66.0867 90.084ZM67.2487 87.676L66.9267 86.444H69.8247V87.494L67.2487 87.676ZM71.3081 93.5V86.444H72.8061L72.9601 87.76C73.1281 87.452 73.3381 87.1907 73.5901 86.976C73.8421 86.752 74.1361 86.5793 74.4721 86.458C74.8175 86.3367 75.1955 86.276 75.6061 86.276V88.054H75.0181C74.7381 88.054 74.4721 88.0913 74.2201 88.166C73.9681 88.2313 73.7488 88.3433 73.5621 88.502C73.3848 88.6513 73.2448 88.8613 73.1421 89.132C73.0395 89.3933 72.9881 89.7247 72.9881 90.126V93.5H71.3081ZM79.2246 93.668C78.6459 93.668 78.1652 93.57 77.7826 93.374C77.3999 93.178 77.1152 92.9167 76.9286 92.59C76.7419 92.2633 76.6486 91.9087 76.6486 91.526C76.6486 91.078 76.7606 90.6907 76.9846 90.364C77.2179 90.0373 77.5586 89.7853 78.0066 89.608C78.4546 89.4213 79.0052 89.328 79.6586 89.328H81.4366C81.4366 88.9547 81.3852 88.6467 81.2826 88.404C81.1799 88.152 81.0212 87.9653 80.8066 87.844C80.5919 87.7227 80.3166 87.662 79.9806 87.662C79.5979 87.662 79.2712 87.7507 79.0006 87.928C78.7299 88.096 78.5619 88.3573 78.4966 88.712H76.8446C76.9006 88.208 77.0686 87.7787 77.3486 87.424C77.6286 87.06 77.9972 86.78 78.4546 86.584C78.9212 86.3787 79.4299 86.276 79.9806 86.276C80.6432 86.276 81.2079 86.3927 81.6746 86.626C82.1412 86.85 82.4959 87.1767 82.7386 87.606C82.9906 88.026 83.1166 88.5347 83.1166 89.132V93.5H81.6886L81.5206 92.366C81.4272 92.5527 81.3059 92.7253 81.1566 92.884C81.0166 93.0427 80.8532 93.1827 80.6666 93.304C80.4799 93.416 80.2652 93.5047 80.0226 93.57C79.7892 93.6353 79.5232 93.668 79.2246 93.668ZM79.6026 92.338C79.8732 92.338 80.1112 92.2913 80.3166 92.198C80.5312 92.0953 80.7132 91.9553 80.8626 91.778C81.0212 91.5913 81.1426 91.386 81.2266 91.162C81.3106 90.938 81.3666 90.7 81.3946 90.448V90.42H79.8406C79.5139 90.42 79.2432 90.462 79.0286 90.546C78.8139 90.6207 78.6599 90.7327 78.5666 90.882C78.4732 91.0313 78.4266 91.204 78.4266 91.4C78.4266 91.596 78.4732 91.764 78.5666 91.904C78.6599 92.044 78.7952 92.1513 78.9726 92.226C79.1499 92.3007 79.3599 92.338 79.6026 92.338ZM88.0476 93.668C87.3943 93.668 86.811 93.5093 86.2976 93.192C85.7843 92.8747 85.383 92.436 85.0936 91.876C84.8136 91.316 84.6736 90.6813 84.6736 89.972C84.6736 89.2627 84.8183 88.6327 85.1076 88.082C85.397 87.522 85.7983 87.0833 86.3116 86.766C86.8343 86.4393 87.4223 86.276 88.0756 86.276C88.6076 86.276 89.0696 86.3787 89.4616 86.584C89.863 86.78 90.1803 87.06 90.4136 87.424V83.42H92.0936V93.5H90.5816L90.4136 92.478C90.2643 92.6833 90.0823 92.8793 89.8676 93.066C89.653 93.2433 89.3963 93.388 89.0976 93.5C88.799 93.612 88.449 93.668 88.0476 93.668ZM88.3976 92.212C88.799 92.212 89.1536 92.1187 89.4616 91.932C89.7696 91.736 90.0076 91.47 90.1756 91.134C90.3436 90.798 90.4276 90.4107 90.4276 89.972C90.4276 89.5333 90.3436 89.146 90.1756 88.81C90.0076 88.474 89.7696 88.2127 89.4616 88.026C89.1536 87.8393 88.799 87.746 88.3976 87.746C88.015 87.746 87.6696 87.8393 87.3616 88.026C87.0536 88.2127 86.811 88.474 86.6336 88.81C86.4656 89.146 86.3816 89.5333 86.3816 89.972C86.3816 90.4107 86.4656 90.798 86.6336 91.134C86.811 91.47 87.0536 91.736 87.3616 91.932C87.6696 92.1187 88.015 92.212 88.3976 92.212ZM97.2664 93.668C96.5664 93.668 95.9504 93.5187 95.4184 93.22C94.8864 92.912 94.4711 92.4827 94.1724 91.932C93.8737 91.3813 93.7244 90.7467 93.7244 90.028C93.7244 89.2813 93.8691 88.628 94.1584 88.068C94.4571 87.508 94.8724 87.0693 95.4044 86.752C95.9457 86.4347 96.5711 86.276 97.2804 86.276C97.9711 86.276 98.5731 86.43 99.0864 86.738C99.5997 87.046 99.9964 87.4613 100.276 87.984C100.556 88.4973 100.696 89.076 100.696 89.72C100.696 89.8133 100.696 89.916 100.696 90.028C100.696 90.14 100.687 90.2567 100.668 90.378H94.9284V89.3H99.0024C98.9837 88.7867 98.8111 88.3853 98.4844 88.096C98.1577 87.7973 97.7517 87.648 97.2664 87.648C96.9211 87.648 96.6037 87.7273 96.3144 87.886C96.0251 88.0447 95.7964 88.2827 95.6284 88.6C95.4604 88.908 95.3764 89.3 95.3764 89.776V90.182C95.3764 90.6207 95.4557 90.9987 95.6144 91.316C95.7824 91.6333 96.0064 91.876 96.2864 92.044C96.5757 92.2027 96.8977 92.282 97.2524 92.282C97.6444 92.282 97.9664 92.198 98.2184 92.03C98.4797 91.862 98.6711 91.638 98.7924 91.358H100.5C100.37 91.7967 100.155 92.1933 99.8564 92.548C99.5577 92.8933 99.1891 93.1687 98.7504 93.374C98.3117 93.57 97.8171 93.668 97.2664 93.668ZM108.004 93.5V85.058H105.12V83.7H112.554V85.058H109.67V93.5H108.004ZM115.915 93.668C115.243 93.668 114.636 93.514 114.095 93.206C113.563 92.8887 113.143 92.4547 112.835 91.904C112.536 91.344 112.387 90.7047 112.387 89.986C112.387 89.2487 112.541 88.6047 112.849 88.054C113.157 87.494 113.577 87.06 114.109 86.752C114.65 86.4347 115.257 86.276 115.929 86.276C116.601 86.276 117.203 86.4347 117.735 86.752C118.276 87.06 118.696 87.4893 118.995 88.04C119.303 88.5907 119.457 89.2347 119.457 89.972C119.457 90.7093 119.303 91.3533 118.995 91.904C118.687 92.4547 118.262 92.8887 117.721 93.206C117.189 93.514 116.587 93.668 115.915 93.668ZM115.915 92.226C116.251 92.226 116.554 92.142 116.825 91.974C117.105 91.806 117.329 91.554 117.497 91.218C117.665 90.882 117.749 90.4667 117.749 89.972C117.749 89.4773 117.665 89.0667 117.497 88.74C117.338 88.404 117.119 88.152 116.839 87.984C116.568 87.816 116.265 87.732 115.929 87.732C115.602 87.732 115.299 87.816 115.019 87.984C114.739 88.152 114.515 88.404 114.347 88.74C114.179 89.0667 114.095 89.4773 114.095 89.972C114.095 90.4667 114.179 90.882 114.347 91.218C114.515 91.554 114.734 91.806 115.005 91.974C115.285 92.142 115.588 92.226 115.915 92.226ZM124.575 93.5V83.7H128.103C128.887 83.7 129.536 83.8353 130.049 84.106C130.562 84.3673 130.945 84.722 131.197 85.17C131.449 85.618 131.575 86.1313 131.575 86.71C131.575 87.2513 131.454 87.7507 131.211 88.208C130.968 88.656 130.59 89.02 130.077 89.3C129.564 89.5707 128.906 89.706 128.103 89.706H126.255V93.5H124.575ZM126.255 88.334H128.005C128.668 88.334 129.144 88.1893 129.433 87.9C129.722 87.6013 129.867 87.2047 129.867 86.71C129.867 86.1967 129.722 85.7953 129.433 85.506C129.144 85.2167 128.668 85.072 128.005 85.072H126.255V88.334ZM132.968 93.5V86.444H134.466L134.62 87.76C134.788 87.452 134.998 87.1907 135.25 86.976C135.502 86.752 135.796 86.5793 136.132 86.458C136.478 86.3367 136.856 86.276 137.266 86.276V88.054H136.678C136.398 88.054 136.132 88.0913 135.88 88.166C135.628 88.2313 135.409 88.3433 135.222 88.502C135.045 88.6513 134.905 88.8613 134.802 89.132C134.7 89.3933 134.648 89.7247 134.648 90.126V93.5H132.968ZM141.672 93.668C141 93.668 140.394 93.514 139.852 93.206C139.32 92.8887 138.9 92.4547 138.592 91.904C138.294 91.344 138.144 90.7047 138.144 89.986C138.144 89.2487 138.298 88.6047 138.606 88.054C138.914 87.494 139.334 87.06 139.866 86.752C140.408 86.4347 141.014 86.276 141.686 86.276C142.358 86.276 142.96 86.4347 143.492 86.752C144.034 87.06 144.454 87.4893 144.752 88.04C145.06 88.5907 145.214 89.2347 145.214 89.972C145.214 90.7093 145.06 91.3533 144.752 91.904C144.444 92.4547 144.02 92.8887 143.478 93.206C142.946 93.514 142.344 93.668 141.672 93.668ZM141.672 92.226C142.008 92.226 142.312 92.142 142.582 91.974C142.862 91.806 143.086 91.554 143.254 91.218C143.422 90.882 143.506 90.4667 143.506 89.972C143.506 89.4773 143.422 89.0667 143.254 88.74C143.096 88.404 142.876 88.152 142.596 87.984C142.326 87.816 142.022 87.732 141.686 87.732C141.36 87.732 141.056 87.816 140.776 87.984C140.496 88.152 140.272 88.404 140.104 88.74C139.936 89.0667 139.852 89.4773 139.852 89.972C139.852 90.4667 139.936 90.882 140.104 91.218C140.272 91.554 140.492 91.806 140.762 91.974C141.042 92.142 141.346 92.226 141.672 92.226Z" fill="white"/>
<g clip-path="url(#clip0_311_50)">
<path d="M159 84.5H154.5C154.102 84.5 153.721 84.658 153.439 84.9393C153.158 85.2206 153 85.6022 153 86V93.5C153 93.8978 153.158 94.2794 153.439 94.5607C153.721 94.842 154.102 95 154.5 95H162C162.398 95 162.779 94.842 163.061 94.5607C163.342 94.2794 163.5 93.8978 163.5 93.5V89" stroke="white" stroke-width="1.5" stroke-linecap="round" stroke-linejoin="round"/>
<path d="M158.25 89.75L165 83" stroke="white" stroke-width="1.5" stroke-linecap="round" stroke-linejoin="round"/>
<path d="M161.25 83H165V86.75" stroke="white" stroke-width="1.5" stroke-linecap="round" stroke-linejoin="round"/>
</g>
<rect x="311" y="24" width="65" height="28" rx="4" fill="white"/>
<path d="M334.087 42.375H323.287C322.729 42.375 322.274 42.7956 322.274 43.3125C322.274 43.8294 322.729 44.25 323.287 44.25H334.087C334.645 44.25 335.099 43.8294 335.099 43.3125C335.099 42.7956 334.645 42.375 334.087 42.375Z" fill="#FF9900"/>
<path d="M335.775 33C335.03 33 334.425 33.5606 334.425 34.25C334.425 34.7131 334.702 35.1137 335.107 35.33C334.326 37.0425 333.108 38.0931 331.969 37.9981C330.703 37.9025 329.67 36.5162 329.101 34.1969C329.831 34.0256 330.375 33.4162 330.375 32.6875C330.375 31.8256 329.618 31.125 328.687 31.125C327.757 31.125 327 31.8256 327 32.6875C327 33.4163 327.544 34.0256 328.274 34.1969C327.705 36.5162 326.672 37.9025 325.406 37.9981C324.272 38.0931 323.048 37.0425 322.268 35.33C322.673 35.1137 322.95 34.7131 322.95 34.25C322.95 33.5606 322.344 33 321.6 33C320.855 33 320.25 33.5606 320.25 34.25C320.25 34.8913 320.776 35.415 321.449 35.4862L322.749 41.75H334.626L335.926 35.4862C336.599 35.415 337.125 34.8913 337.125 34.25C337.125 33.5606 336.52 33 335.775 33Z" fill="url(#paint0_linear_311_50)"/>
<path d="M344.136 44V32.8H348.056C348.931 32.8 349.656 32.9493 350.232 33.248C350.808 33.536 351.235 33.936 351.512 34.448C351.8 34.9493 351.944 35.52 351.944 36.16C351.944 36.768 351.805 37.328 351.528 37.84C351.261 38.3413 350.84 38.7413 350.264 39.04C349.688 39.3387 348.952 39.488 348.056 39.488H345.832V44H344.136ZM345.832 38.096H347.976C348.776 38.096 349.347 37.9253 349.688 37.584C350.04 37.232 350.216 36.7573 350.216 36.16C350.216 35.5413 350.04 35.0613 349.688 34.72C349.347 34.368 348.776 34.192 347.976 34.192H345.832V38.096ZM353.236 44V36.064H354.756L354.9 37.568C355.178 37.0453 355.562 36.6347 356.052 36.336C356.554 36.0267 357.156 35.872 357.86 35.872V37.648H357.396C356.927 37.648 356.506 37.728 356.132 37.888C355.77 38.0373 355.476 38.2987 355.252 38.672C355.039 39.0347 354.932 39.5413 354.932 40.192V44H353.236ZM362.488 44.192C361.73 44.192 361.048 44.0213 360.44 43.68C359.842 43.328 359.368 42.8427 359.016 42.224C358.664 41.5947 358.488 40.864 358.488 40.032C358.488 39.2 358.664 38.4747 359.016 37.856C359.378 37.2267 359.864 36.7413 360.472 36.4C361.08 36.048 361.757 35.872 362.504 35.872C363.261 35.872 363.938 36.048 364.536 36.4C365.144 36.7413 365.624 37.2267 365.976 37.856C366.338 38.4747 366.52 39.2 366.52 40.032C366.52 40.864 366.338 41.5947 365.976 42.224C365.624 42.8427 365.144 43.328 364.536 43.68C363.928 44.0213 363.245 44.192 362.488 44.192ZM362.488 42.736C362.893 42.736 363.266 42.6347 363.608 42.432C363.96 42.2293 364.242 41.9307 364.456 41.536C364.669 41.1307 364.776 40.6293 364.776 40.032C364.776 39.4347 364.669 38.9387 364.456 38.544C364.253 38.1387 363.976 37.8347 363.624 37.632C363.282 37.4293 362.909 37.328 362.504 37.328C362.098 37.328 361.72 37.4293 361.368 37.632C361.026 37.8347 360.749 38.1387 360.536 38.544C360.322 38.9387 360.216 39.4347 360.216 40.032C360.216 40.6293 360.322 41.1307 360.536 41.536C360.749 41.9307 361.026 42.2293 361.368 42.432C361.709 42.6347 362.082 42.736 362.488 42.736Z" fill="#2A3256"/>
<g clip-path="url(#clip1_311_50)">
<path d="M47.364 29.636C45.6641 27.9362 43.404 27 41 27C38.596 27 36.3359 27.9362 34.636 29.636C32.9362 31.3359 32 33.596 32 36C32 38.404 32.9362 40.6641 34.636 42.364C36.3359 44.0638 38.596 45 41 45C43.404 45 45.6641 44.0638 47.364 42.364C49.0638 40.6641 50 38.404 50 36C50 33.596 49.0638 31.3359 47.364 29.636ZM41 30.5508C41.8723 30.5508 42.582 31.2605 42.582 32.1328C42.582 33.0051 41.8723 33.7148 41 33.7148C40.1277 33.7148 39.418 33.0051 39.418 32.1328C39.418 31.2605 40.1277 30.5508 41 30.5508ZM43.25 41.0977H38.6797V40.043H39.418V35.8242H38.7148V34.7695H42.582V40.043H43.25V41.0977Z" fill="url(#paint1_linear_311_50)"/>
</g>
<path d="M59.42 43V29H64.24C65.3467 29 66.2533 29.1867 66.96 29.56C67.68 29.9333 68.2133 30.44 68.56 31.08C68.9067 31.7067 69.08 32.4067 69.08 33.18C69.08 34.0467 68.8467 34.8333 68.38 35.54C67.9267 36.2467 67.2133 36.7533 66.24 37.06L69.22 43H66.76L64.04 37.36H61.54V43H59.42ZM61.54 35.76H64.12C65.08 35.76 65.78 35.5267 66.22 35.06C66.6733 34.5933 66.9 33.9867 66.9 33.24C66.9 32.4933 66.68 31.9 66.24 31.46C65.8 31.0067 65.0867 30.78 64.1 30.78H61.54V35.76ZM75.1425 43.24C74.1692 43.24 73.3025 43.0267 72.5425 42.6C71.7958 42.16 71.2092 41.5533 70.7825 40.78C70.3558 40.0067 70.1425 39.1067 70.1425 38.08C70.1425 37.04 70.3492 36.1267 70.7625 35.34C71.1892 34.5533 71.7758 33.94 72.5225 33.5C73.2825 33.06 74.1625 32.84 75.1625 32.84C76.1358 32.84 76.9825 33.06 77.7025 33.5C78.4225 33.9267 78.9825 34.5 79.3825 35.22C79.7825 35.94 79.9825 36.7333 79.9825 37.6C79.9825 37.7333 79.9758 37.88 79.9625 38.04C79.9625 38.1867 79.9558 38.3533 79.9425 38.54H72.2225C72.2892 39.5 72.6025 40.2333 73.1625 40.74C73.7358 41.2333 74.3958 41.48 75.1425 41.48C75.7425 41.48 76.2425 41.3467 76.6425 41.08C77.0558 40.8 77.3625 40.4267 77.5625 39.96H79.6825C79.4158 40.8933 78.8825 41.6733 78.0825 42.3C77.2958 42.9267 76.3158 43.24 75.1425 43.24ZM75.1425 34.58C74.4358 34.58 73.8092 34.7933 73.2625 35.22C72.7158 35.6333 72.3825 36.26 72.2625 37.1H77.8625C77.8225 36.3267 77.5492 35.7133 77.0425 35.26C76.5358 34.8067 75.9025 34.58 75.1425 34.58ZM82.2822 43V34.86H80.8622V33.08H82.2822V31.64C82.2822 30.56 82.5489 29.7867 83.0822 29.32C83.6289 28.84 84.3955 28.6 85.3822 28.6H86.4222V30.4H85.7022C85.2355 30.4 84.9022 30.5 84.7022 30.7C84.5022 30.8867 84.4022 31.2067 84.4022 31.66V33.08H86.6822V34.86H84.4022V43H82.2822ZM91.9562 43.24C90.7562 43.24 89.8096 42.8667 89.1162 42.12C88.4362 41.3733 88.0962 40.26 88.0962 38.78V33.08H90.2162V38.56C90.2162 40.48 91.0029 41.44 92.5762 41.44C93.3629 41.44 94.0096 41.16 94.5162 40.6C95.0229 40.04 95.2762 39.24 95.2762 38.2V33.08H97.3962V43H95.5162L95.3562 41.26C95.0496 41.8733 94.5962 42.36 93.9962 42.72C93.4096 43.0667 92.7296 43.24 91.9562 43.24ZM99.6931 43V33.08H101.573L101.733 34.82C102.04 34.2067 102.486 33.7267 103.073 33.38C103.673 33.02 104.36 32.84 105.133 32.84C106.333 32.84 107.273 33.2133 107.953 33.96C108.646 34.7067 108.993 35.82 108.993 37.3V43H106.893V37.52C106.893 35.6 106.106 34.64 104.533 34.64C103.746 34.64 103.093 34.92 102.573 35.48C102.066 36.04 101.813 36.84 101.813 37.88V43H99.6931ZM115.61 43.24C114.65 43.24 113.803 43.0133 113.07 42.56C112.337 42.1067 111.763 41.4867 111.35 40.7C110.937 39.9133 110.73 39.02 110.73 38.02C110.73 37.02 110.937 36.1333 111.35 35.36C111.763 34.5733 112.337 33.96 113.07 33.52C113.817 33.0667 114.67 32.84 115.63 32.84C116.417 32.84 117.103 32.9933 117.69 33.3C118.29 33.6067 118.757 34.04 119.09 34.6V28.6H121.21V43H119.31L119.09 41.46C118.77 41.9267 118.33 42.34 117.77 42.7C117.21 43.06 116.49 43.24 115.61 43.24ZM115.99 41.4C116.897 41.4 117.637 41.0867 118.21 40.46C118.797 39.8333 119.09 39.0267 119.09 38.04C119.09 37.04 118.797 36.2333 118.21 35.62C117.637 34.9933 116.897 34.68 115.99 34.68C115.083 34.68 114.337 34.9933 113.75 35.62C113.163 36.2333 112.87 37.04 112.87 38.04C112.87 38.6933 113.003 39.2733 113.27 39.78C113.537 40.2867 113.903 40.6867 114.37 40.98C114.85 41.26 115.39 41.4 115.99 41.4ZM128.202 43V29H133.102C134.195 29 135.102 29.1867 135.822 29.56C136.542 29.92 137.075 30.42 137.422 31.06C137.782 31.6867 137.962 32.4 137.962 33.2C137.962 33.96 137.789 34.66 137.442 35.3C137.109 35.9267 136.582 36.4267 135.862 36.8C135.142 37.1733 134.222 37.36 133.102 37.36H130.322V43H128.202ZM130.322 35.62H133.002C134.002 35.62 134.715 35.4067 135.142 34.98C135.582 34.54 135.802 33.9467 135.802 33.2C135.802 32.4267 135.582 31.8267 135.142 31.4C134.715 30.96 134.002 30.74 133.002 30.74H130.322V35.62ZM142.391 43.24C141.551 43.24 140.857 43.1 140.311 42.82C139.764 42.54 139.357 42.1733 139.091 41.72C138.824 41.2533 138.691 40.7467 138.691 40.2C138.691 39.24 139.064 38.48 139.811 37.92C140.557 37.36 141.624 37.08 143.011 37.08H145.611V36.9C145.611 36.1267 145.397 35.5467 144.971 35.16C144.557 34.7733 144.017 34.58 143.351 34.58C142.764 34.58 142.251 34.7267 141.811 35.02C141.384 35.3 141.124 35.72 141.031 36.28H138.911C138.977 35.56 139.217 34.9467 139.631 34.44C140.057 33.92 140.591 33.5267 141.231 33.26C141.884 32.98 142.597 32.84 143.371 32.84C144.757 32.84 145.831 33.2067 146.591 33.94C147.351 34.66 147.731 35.6467 147.731 36.9V43H145.891L145.711 41.3C145.431 41.8467 145.024 42.3067 144.491 42.68C143.957 43.0533 143.257 43.24 142.391 43.24ZM142.811 41.52C143.384 41.52 143.864 41.3867 144.251 41.12C144.651 40.84 144.957 40.4733 145.171 40.02C145.397 39.5667 145.537 39.0667 145.591 38.52H143.231C142.391 38.52 141.791 38.6667 141.431 38.96C141.084 39.2533 140.911 39.62 140.911 40.06C140.911 40.5133 141.077 40.8733 141.411 41.14C141.757 41.3933 142.224 41.52 142.811 41.52ZM150.65 47.4L153.03 42.18H152.45L148.53 33.08H150.83L153.87 40.42L157.05 33.08H159.29L152.89 47.4H150.65ZM160.633 43V33.08H162.513L162.693 34.48C163.013 33.9733 163.433 33.5733 163.953 33.28C164.486 32.9867 165.1 32.84 165.793 32.84C167.366 32.84 168.46 33.46 169.073 34.7C169.433 34.1267 169.913 33.6733 170.513 33.34C171.126 33.0067 171.786 32.84 172.493 32.84C173.733 32.84 174.706 33.2133 175.413 33.96C176.12 34.7067 176.473 35.82 176.473 37.3V43H174.353V37.52C174.353 35.6 173.62 34.64 172.153 34.64C171.406 34.64 170.793 34.92 170.313 35.48C169.846 36.04 169.613 36.84 169.613 37.88V43H167.493V37.52C167.493 35.6 166.753 34.64 165.273 34.64C164.54 34.64 163.933 34.92 163.453 35.48C162.986 36.04 162.753 36.84 162.753 37.88V43H160.633ZM183.193 43.24C182.22 43.24 181.353 43.0267 180.593 42.6C179.847 42.16 179.26 41.5533 178.833 40.78C178.407 40.0067 178.193 39.1067 178.193 38.08C178.193 37.04 178.4 36.1267 178.813 35.34C179.24 34.5533 179.827 33.94 180.573 33.5C181.333 33.06 182.213 32.84 183.213 32.84C184.187 32.84 185.033 33.06 185.753 33.5C186.473 33.9267 187.033 34.5 187.433 35.22C187.833 35.94 188.033 36.7333 188.033 37.6C188.033 37.7333 188.027 37.88 188.013 38.04C188.013 38.1867 188.007 38.3533 187.993 38.54H180.273C180.34 39.5 180.653 40.2333 181.213 40.74C181.787 41.2333 182.447 41.48 183.193 41.48C183.793 41.48 184.293 41.3467 184.693 41.08C185.107 40.8 185.413 40.4267 185.613 39.96H187.733C187.467 40.8933 186.933 41.6733 186.133 42.3C185.347 42.9267 184.367 43.24 183.193 43.24ZM183.193 34.58C182.487 34.58 181.86 34.7933 181.313 35.22C180.767 35.6333 180.433 36.26 180.313 37.1H185.913C185.873 36.3267 185.6 35.7133 185.093 35.26C184.587 34.8067 183.953 34.58 183.193 34.58ZM189.833 43V33.08H191.713L191.873 34.82C192.18 34.2067 192.626 33.7267 193.213 33.38C193.813 33.02 194.5 32.84 195.273 32.84C196.473 32.84 197.413 33.2133 198.093 33.96C198.786 34.7067 199.133 35.82 199.133 37.3V43H197.033V37.52C197.033 35.6 196.246 34.64 194.673 34.64C193.886 34.64 193.233 34.92 192.713 35.48C192.206 36.04 191.953 36.84 191.953 37.88V43H189.833ZM205.39 43C204.417 43 203.643 42.7667 203.07 42.3C202.497 41.82 202.21 40.9733 202.21 39.76V34.86H200.51V33.08H202.21L202.47 30.56H204.33V33.08H207.13V34.86H204.33V39.76C204.33 40.3067 204.443 40.6867 204.67 40.9C204.91 41.1 205.317 41.2 205.89 41.2H207.03V43H205.39Z" fill="#2A3256"/>
<defs>
<linearGradient id="paint0_linear_311_50" x1="328.688" y1="31.125" x2="328.688" y2="41.75" gradientUnits="userSpaceOnUse">
<stop stop-color="#FFC045"/>
<stop offset="1" stop-color="#FF9900"/>
</linearGradient>
<linearGradient id="paint1_linear_311_50" x1="41" y1="27" x2="41" y2="45" gradientUnits="userSpaceOnUse">
<stop stop-color="#A293FF"/>
<stop offset="1" stop-color="#6E58F7"/>
</linearGradient>
<clipPath id="clip0_311_50">
<rect width="18" height="18" fill="white" transform="translate(150 80)"/>
</clipPath>
<clipPath id="clip1_311_50">
<rect width="18" height="18" fill="white" transform="translate(32 27)"/>
</clipPath>
</defs>
</svg>
