<svg width="470" height="470" viewBox="0 0 470 470" fill="none" xmlns="http://www.w3.org/2000/svg">
<path d="M218.453 293.76C212.813 293.85 207.367 291.702 203.307 287.787L154.667 240C150.621 236.011 148.326 230.579 148.286 224.898C148.246 219.217 150.465 213.752 154.453 209.707C158.442 205.661 163.875 203.366 169.556 203.326C175.237 203.286 180.701 205.505 184.747 209.494L218.453 242.56L305.92 157.227C307.923 155.252 310.296 153.691 312.902 152.632C315.509 151.574 318.298 151.04 321.111 151.06C323.924 151.079 326.706 151.653 329.297 152.748C331.888 153.843 334.238 155.437 336.213 157.44C338.189 159.443 339.75 161.816 340.808 164.422C341.866 167.029 342.401 169.818 342.381 172.631C342.361 175.444 341.787 178.226 340.692 180.817C339.598 183.408 338.003 185.758 336 187.734L233.387 288.64C229.247 292.194 223.903 294.026 218.453 293.76V293.76Z" fill="#20BF55"/>
<path d="M234.667 469.333C188.254 469.333 142.884 455.571 104.293 429.785C65.7022 404 35.6244 367.35 17.863 324.47C0.101678 281.59 -4.54551 234.406 4.50916 188.886C13.5638 143.365 35.9137 101.551 68.7324 68.7324C101.551 35.9137 143.365 13.5638 188.886 4.50916C234.406 -4.54551 281.59 0.101678 324.47 17.863C367.35 35.6244 404 65.7022 429.785 104.293C455.571 142.884 469.333 188.254 469.333 234.667C469.333 296.904 444.61 356.593 400.601 400.601C356.593 444.61 296.904 469.333 234.667 469.333V469.333ZM234.667 42.6668C196.693 42.6668 159.572 53.9274 127.997 75.0246C96.4231 96.1218 71.8139 126.108 57.2819 161.192C42.7499 196.275 38.9476 234.88 46.356 272.124C53.7644 309.368 72.0506 343.58 98.9023 370.431C125.754 397.283 159.965 415.569 197.209 422.978C234.454 430.386 273.059 426.584 308.142 412.052C343.225 397.52 373.212 372.911 394.309 341.336C415.406 309.762 426.667 272.641 426.667 234.667C426.667 183.745 406.438 134.909 370.431 98.9023C334.424 62.8953 285.588 42.6668 234.667 42.6668V42.6668Z" fill="#20BF55"/>
</svg>
